<?xml version="1.0" standalone="no"?>
<!DOCTYPE svg PUBLIC "-//W3C//DTD SVG 20010904//EN"
 "http://www.w3.org/TR/2001/REC-SVG-20010904/DTD/svg10.dtd">
<svg version="1.0" xmlns="http://www.w3.org/2000/svg"
 width="1466.000000pt" height="931.000000pt" viewBox="0 0 1466.000000 931.000000"
 preserveAspectRatio="xMidYMid meet">

<g transform="translate(0.000000,931.000000) scale(0.100000,-0.100000)"
fill="#000000" stroke="none">
<path d="M0 9295 c0 -13 821 -15 7330 -15 6509 0 7330 2 7330 15 0 13 -821 15
-7330 15 -6509 0 -7330 -2 -7330 -15z"/>
<path d="M381 8856 c-71 -72 -76 -97 -27 -131 16 -11 29 -24 27 -28 -2 -8 64
-57 77 -57 14 0 132 126 132 141 0 16 -119 139 -136 139 -5 0 -38 -29 -73 -64z
m49 -85 c0 -17 -18 -21 -24 -6 -3 9 0 15 9 15 8 0 15 -4 15 -9z m81 -38 c7
-10 9 -15 4 -10 -4 4 -19 -3 -32 -15 -27 -25 -33 -5 -6 24 20 22 18 22 34 1z"/>
<path d="M1346 8874 c-8 -21 1 -34 24 -34 10 0 21 4 24 9 10 16 -5 41 -24 41
-10 0 -21 -7 -24 -16z"/>
<path d="M720 8860 c0 -5 5 -10 10 -10 6 0 10 -38 10 -95 0 -57 -4 -95 -10
-95 -5 0 -10 -4 -10 -10 0 -5 20 -10 45 -10 25 0 45 5 45 10 0 6 -4 10 -10 10
-5 0 -10 20 -10 45 l0 45 45 0 45 0 0 -45 c0 -25 -4 -45 -10 -45 -5 0 -10 -4
-10 -10 0 -5 20 -10 45 -10 25 0 45 5 45 10 0 6 -4 10 -10 10 -6 0 -10 38 -10
95 0 57 4 95 10 95 6 0 10 5 10 10 0 6 -20 10 -45 10 -25 0 -45 -4 -45 -10 0
-5 5 -10 10 -10 6 0 10 -18 10 -40 l0 -40 -45 0 -45 0 0 40 c0 22 5 40 10 40
6 0 10 5 10 10 0 6 -20 10 -45 10 -25 0 -45 -4 -45 -10z"/>
<path d="M1001 8784 c-47 -60 -10 -144 63 -144 45 0 76 37 76 91 0 52 -27 79
-79 79 -31 0 -44 -6 -60 -26z m87 -56 c-3 -60 -4 -63 -28 -63 -23 0 -25 4 -28
49 -4 63 2 76 33 76 25 0 26 -1 23 -62z"/>
<path d="M1180 8799 c-11 -8 -12 -12 -2 -16 15 -6 17 -123 2 -123 -5 0 -10 -4
-10 -10 0 -5 20 -10 45 -10 25 0 45 5 45 10 0 6 -7 10 -15 10 -19 0 -21 100
-3 118 16 16 29 15 26 0 -2 -7 6 -13 17 -13 13 0 20 7 20 20 0 24 -38 33 -61
15 -10 -9 -14 -9 -14 -1 0 14 -30 14 -50 0z"/>
<path d="M1340 8799 c-11 -8 -12 -12 -2 -16 15 -6 17 -123 2 -123 -5 0 -10 -4
-10 -10 0 -5 18 -10 40 -10 22 0 40 5 40 10 0 6 -4 10 -10 10 -6 0 -10 32 -10
75 0 65 -2 75 -17 75 -10 0 -25 -5 -33 -11z"/>
<path d="M1440 8785 c0 -28 15 -33 28 -9 5 9 18 14 30 12 21 -3 20 -6 -18 -63
-22 -33 -40 -66 -40 -72 0 -9 21 -13 70 -13 68 0 70 1 70 25 0 16 -6 25 -15
25 -8 0 -15 -7 -15 -15 0 -10 -10 -15 -31 -15 -34 0 -35 -4 23 79 21 30 38 58
38 63 0 4 -31 8 -70 8 -68 0 -70 -1 -70 -25z"/>
<path d="M1621 8784 c-47 -60 -10 -144 63 -144 45 0 76 37 76 91 0 52 -27 79
-79 79 -31 0 -44 -6 -60 -26z m87 -56 c-3 -60 -4 -63 -28 -63 -23 0 -25 4 -28
49 -4 63 2 76 33 76 25 0 26 -1 23 -62z"/>
<path d="M1800 8799 c-11 -8 -12 -12 -2 -16 15 -6 17 -123 2 -123 -5 0 -10 -4
-10 -10 0 -5 18 -10 40 -10 22 0 40 5 40 10 0 6 -4 10 -10 10 -5 0 -10 22 -10
49 0 59 20 87 51 71 15 -9 19 -22 19 -65 0 -30 -4 -55 -10 -55 -5 0 -10 -4
-10 -10 0 -5 18 -10 40 -10 22 0 40 5 40 10 0 6 -4 10 -10 10 -6 0 -10 28 -10
63 0 36 -5 68 -12 75 -16 16 -60 15 -77 0 -11 -10 -14 -10 -18 0 -6 15 -33 16
-53 1z"/>
<path d="M6195 8580 c-4 -7 -3 -16 3 -22 14 -14 45 -2 40 15 -6 16 -34 21 -43
7z"/>
<path d="M4136 8493 c14 -49 30 -109 36 -135 10 -43 14 -48 39 -48 26 0 28 4
49 93 13 50 26 95 29 100 4 4 18 -38 31 -93 23 -96 25 -100 50 -100 26 0 28 5
60 123 18 67 35 128 38 135 2 7 -5 12 -21 12 -23 0 -26 -7 -46 -85 -11 -46
-21 -93 -21 -105 0 -49 -17 -12 -39 86 -24 101 -25 105 -50 102 -23 -3 -27
-11 -52 -108 -28 -113 -25 -112 -49 -10 -28 114 -30 120 -54 120 l-24 0 24
-87z"/>
<path d="M4710 8445 l0 -135 25 0 25 0 0 135 0 135 -25 0 -25 0 0 -135z"/>
<path d="M5920 8445 c0 -128 1 -135 20 -135 18 0 20 7 20 60 l0 60 65 0 65 0
0 -60 c0 -53 2 -60 20 -60 19 0 20 7 20 135 0 128 -1 135 -20 135 -18 0 -20
-7 -20 -55 l0 -55 -65 0 -65 0 0 55 c0 48 -2 55 -20 55 -19 0 -20 -7 -20 -135z"/>
<path d="M7280 8445 c0 -128 1 -135 20 -135 18 0 20 7 20 73 0 77 9 97 45 97
36 0 45 -20 45 -97 0 -66 2 -73 20 -73 18 0 20 7 20 79 0 61 -4 84 -18 101
-22 27 -65 29 -92 5 -20 -18 -20 -17 -20 33 0 45 -3 52 -20 52 -19 0 -20 -7
-20 -135z"/>
<path d="M4554 8513 c-41 -8 -69 -50 -69 -105 0 -42 4 -53 28 -74 19 -16 40
-24 65 -24 36 0 82 22 82 39 0 17 -32 21 -46 6 -28 -27 -73 -13 -87 28 -6 15
2 17 68 17 82 0 84 2 64 60 -8 22 -22 37 -45 46 -18 8 -35 13 -36 13 -2 -1
-13 -4 -24 -6z m54 -45 c25 -25 13 -38 -33 -38 -30 0 -45 4 -45 13 0 19 21 37
45 37 12 0 26 -5 33 -12z"/>
<path d="M4875 8513 c-78 -19 -98 -141 -31 -188 30 -22 88 -19 114 5 12 12 22
25 22 29 0 19 -32 19 -50 1 -25 -25 -42 -25 -63 -2 -20 22 -23 92 -5 110 17
17 53 15 68 -3 14 -17 50 -20 50 -5 0 13 -37 50 -49 50 -5 0 -15 2 -23 4 -7 2
-22 1 -33 -1z"/>
<path d="M5095 8513 c-78 -19 -98 -141 -31 -188 25 -18 85 -19 107 -2 37 28
52 105 28 149 -9 16 -70 51 -81 47 -2 -1 -12 -3 -23 -6z m59 -55 c22 -31 20
-74 -4 -98 -24 -24 -38 -25 -62 -3 -21 19 -25 92 -6 111 19 19 55 14 72 -10z"/>
<path d="M5335 8508 c-11 -6 -23 -16 -27 -22 -5 -7 -8 -4 -8 7 0 10 -8 17 -20
17 -19 0 -20 -7 -20 -100 0 -93 1 -100 20 -100 17 0 19 8 22 76 2 60 7 79 21
88 12 8 22 8 35 0 13 -9 18 -28 20 -88 3 -67 5 -76 22 -76 17 0 19 9 22 76 2
60 7 79 21 88 12 8 22 8 35 0 13 -9 18 -28 20 -88 3 -68 5 -76 22 -76 18 0 20
7 20 84 0 89 -8 108 -51 121 -14 5 -31 0 -48 -13 -26 -19 -27 -19 -50 -1 -27
22 -29 22 -56 7z"/>
<path d="M5643 8505 c-40 -17 -53 -42 -53 -98 0 -35 6 -50 26 -71 36 -35 101
-37 133 -2 21 22 21 24 3 28 -10 3 -27 -1 -37 -8 -26 -19 -49 -17 -68 4 -31
34 -21 42 53 42 l70 0 0 29 c0 35 -35 77 -70 84 -14 3 -39 0 -57 -8z m77 -44
c15 -30 14 -31 -40 -31 -54 0 -55 1 -40 31 7 12 21 19 40 19 19 0 33 -7 40
-19z"/>
<path d="M6380 8512 c-8 -2 -23 -11 -32 -20 -16 -14 -18 -13 -18 1 0 10 -8 17
-20 17 -19 0 -20 -7 -20 -100 0 -93 1 -100 20 -100 18 0 20 7 20 68 0 82 14
108 53 98 26 -6 27 -8 27 -86 0 -73 2 -80 20 -80 18 0 20 7 20 74 0 82 12 103
55 92 24 -6 25 -9 25 -86 0 -73 2 -80 20 -80 18 0 20 7 20 83 0 97 -11 120
-60 120 -22 0 -38 -7 -50 -23 -14 -19 -18 -20 -23 -7 -8 20 -38 36 -57 29z"/>
<path d="M6685 8512 c-22 -5 -55 -30 -55 -44 0 -11 38 -10 45 2 10 16 62 12
69 -6 9 -23 -1 -34 -30 -34 -14 0 -40 -7 -59 -14 -29 -12 -35 -20 -35 -45 0
-55 58 -80 108 -45 20 14 22 14 22 0 0 -10 9 -16 21 -16 20 0 21 4 18 85 -2
46 -9 89 -15 95 -14 14 -65 27 -89 22z m65 -121 c0 -49 -81 -71 -88 -24 -3 17
3 24 25 29 15 3 33 7 38 9 21 7 25 4 25 -14z"/>
<path d="M7125 8513 c-48 -12 -72 -66 -41 -92 8 -6 33 -17 57 -24 33 -10 44
-18 44 -32 0 -27 -50 -33 -76 -9 -16 14 -22 15 -32 5 -19 -20 27 -51 74 -51
49 0 82 29 77 68 -2 22 -11 30 -51 43 -54 18 -72 32 -63 48 9 14 63 14 71 1 9
-15 35 -12 35 4 0 27 -53 48 -95 39z"/>
<path d="M6190 8410 c0 -93 1 -100 20 -100 19 0 20 7 20 100 0 93 -1 100 -20
100 -19 0 -20 -7 -20 -100z"/>
<path d="M6840 8410 c0 -93 1 -100 20 -100 18 0 20 7 20 68 0 72 16 102 53
102 33 0 47 -29 47 -101 0 -62 2 -69 20 -69 18 0 20 6 19 63 0 34 -5 78 -12
97 -11 32 -16 35 -55 38 -31 2 -44 -1 -48 -12 -8 -20 -24 -21 -24 -1 0 8 -9
15 -20 15 -19 0 -20 -7 -20 -100z"/>
<path d="M7510 8430 c0 -89 17 -120 65 -120 14 0 34 9 45 20 l20 20 0 -20 c0
-13 7 -20 20 -20 19 0 20 7 20 100 0 93 -1 100 -20 100 -18 0 -20 -7 -20 -68
0 -75 -10 -92 -51 -92 -33 0 -39 14 -39 96 0 57 -2 64 -20 64 -18 0 -20 -7
-20 -80z"/>
<path d="M8565 8070 c-3 -5 -1 -10 4 -10 6 0 11 5 11 10 0 6 -2 10 -4 10 -3 0
-8 -4 -11 -10z"/>
<path d="M9143 8063 c-4 -10 -11 -21 -17 -25 -7 -5 -7 -8 2 -8 8 0 13 -18 14
-52 l1 -53 4 45 c2 26 11 50 20 58 16 11 16 12 0 12 -22 0 -22 16 1 29 16 10
16 10 -1 11 -10 0 -21 -8 -24 -17z"/>
<path d="M9213 8060 c-3 -11 -10 -20 -15 -20 -7 0 -7 -5 0 -13 6 -7 12 -33 15
-57 l4 -45 1 52 c1 30 7 53 15 56 10 4 10 6 0 6 -19 1 -15 29 5 34 15 4 15 5
-1 6 -11 1 -21 -7 -24 -19z"/>
<path d="M9270 8070 c0 -5 5 -10 11 -10 5 0 7 5 4 10 -3 6 -8 10 -11 10 -2 0
-4 -4 -4 -10z"/>
<path d="M9430 8070 c0 -5 5 -10 10 -10 6 0 10 5 10 10 0 6 -4 10 -10 10 -5 0
-10 -4 -10 -10z"/>
<path d="M4153 8053 c-3 -10 -15 -40 -25 -67 -10 -27 -16 -51 -13 -54 3 -4 8
4 12 16 8 31 64 31 87 0 10 -15 7 0 -9 46 -14 37 -25 70 -25 72 0 12 -22 1
-27 -13z m33 -41 c6 -27 4 -32 -13 -32 -29 0 -32 7 -20 46 12 39 24 34 33 -14z"/>
<path d="M5170 8044 c0 -22 -2 -24 -15 -14 -20 16 -43 6 -57 -24 -9 -20 -8
-30 6 -51 17 -25 40 -33 50 -16 4 5 -3 7 -13 4 -39 -10 -52 67 -14 81 24 10
42 -12 46 -57 2 -27 4 -16 5 31 1 39 0 72 -3 72 -3 0 -5 -12 -5 -26z"/>
<path d="M7690 8044 c0 -22 -2 -24 -15 -14 -20 16 -43 6 -57 -24 -9 -20 -8
-30 6 -51 17 -25 40 -33 50 -16 4 5 -3 7 -13 4 -39 -10 -52 67 -14 81 24 10
42 -12 46 -57 2 -27 4 -16 5 31 1 39 0 72 -3 72 -3 0 -5 -12 -5 -26z"/>
<path d="M9783 8000 c0 -41 2 -58 4 -37 2 20 2 54 0 75 -2 20 -4 3 -4 -38z"/>
<path d="M7262 8043 c-7 -7 -8 -13 -3 -13 5 0 11 -21 13 -47 2 -31 8 -48 18
-51 12 -4 13 -2 3 9 -15 15 -17 71 -4 85 6 5 5 13 -3 20 -8 8 -15 7 -24 -3z"/>
<path d="M7798 8049 c-2 -6 -1 -34 2 -62 4 -42 9 -52 25 -55 18 -2 18 -2 3 8
-19 12 -25 69 -9 86 6 5 4 14 -4 21 -9 8 -15 9 -17 2z"/>
<path d="M8503 8045 c-6 -7 -8 -16 -3 -21 5 -5 10 -27 12 -48 2 -22 9 -41 16
-42 7 -1 8 0 2 3 -12 6 -13 90 -1 95 5 2 4 8 -3 14 -8 8 -15 7 -23 -1z"/>
<path d="M9718 8049 c-2 -6 -1 -34 2 -62 4 -42 9 -52 25 -55 18 -2 18 -2 3 8
-19 12 -25 69 -9 86 6 5 4 14 -4 21 -9 8 -15 9 -17 2z"/>
<path d="M4267 8022 c-21 -23 -22 -56 -1 -76 20 -21 48 -20 65 1 13 15 12 15
-8 5 -30 -17 -41 -15 -53 8 -20 37 17 87 44 60 16 -16 30 -12 16 5 -17 20 -43
19 -63 -3z"/>
<path d="M4388 8029 c-22 -13 -24 -72 -3 -89 16 -13 65 -6 65 10 0 6 -8 5 -19
-2 -15 -9 -23 -9 -35 1 -37 31 -5 97 35 73 10 -7 19 -8 19 -3 0 8 -24 21 -38
21 -4 0 -15 -5 -24 -11z"/>
<path d="M4494 8015 c-22 -34 -11 -73 22 -81 16 -4 30 -2 37 7 7 8 8 11 3 7
-18 -14 -45 -8 -56 12 -10 18 -8 20 30 20 33 0 40 3 40 20 0 18 -26 40 -49 40
-6 0 -18 -11 -27 -25z m56 0 c17 -21 9 -27 -31 -23 -31 3 -32 4 -15 21 21 21
30 21 46 2z"/>
<path d="M4612 8028 c-20 -20 -14 -35 18 -47 17 -5 30 -15 30 -21 0 -18 -29
-23 -47 -9 -14 12 -16 12 -11 -1 3 -9 17 -15 34 -15 24 0 29 4 29 25 0 17 -7
26 -24 30 -14 3 -26 11 -29 18 -6 18 26 26 45 11 14 -12 16 -12 11 1 -6 19
-40 24 -56 8z"/>
<path d="M4714 8025 c-9 -23 3 -43 28 -47 33 -4 30 -33 -4 -33 -17 1 -24 -3
-19 -8 5 -5 21 -7 35 -3 37 9 34 41 -5 55 -34 12 -35 36 -1 35 12 0 19 3 16 8
-9 14 -44 9 -50 -7z"/>
<path d="M4883 8033 c-7 -2 -13 -9 -13 -15 0 -6 6 -6 15 2 18 15 45 6 45 -15
0 -9 -9 -15 -24 -15 -33 0 -53 -25 -36 -45 7 -8 20 -15 29 -14 10 0 8 4 -7 10
-31 12 -23 33 13 37 24 3 27 1 22 -17 -3 -12 -1 -24 4 -27 5 -3 9 17 9 44 0
56 -17 72 -57 55z"/>
<path d="M4983 7985 c0 -46 1 -50 4 -18 8 79 59 83 66 5 l3 -47 2 52 c2 44 -1
53 -18 58 -12 4 -27 2 -35 -5 -10 -8 -14 -8 -18 2 -3 7 -5 -14 -4 -47z"/>
<path d="M5282 7980 l2 -55 3 47 c3 30 9 48 19 52 26 10 34 -3 36 -52 l1 -47
4 42 c2 23 11 47 19 53 22 19 42 -4 47 -53 l4 -42 1 41 c1 22 -4 49 -12 60
-13 16 -18 17 -35 7 -12 -8 -22 -9 -26 -3 -3 5 -19 8 -35 7 -30 -2 -30 -3 -28
-57z"/>
<path d="M5459 8023 c-13 -15 -12 -15 8 -5 24 13 56 6 50 -12 -2 -6 -17 -13
-33 -16 -23 -4 -29 -10 -29 -30 0 -22 4 -25 38 -25 37 -1 37 0 37 40 0 61 -39
87 -71 48z m59 -55 c-7 -21 -36 -34 -49 -21 -6 6 -8 16 -5 22 10 15 59 14 54
-1z"/>
<path d="M5573 7985 c0 -33 2 -45 4 -27 2 18 2 45 0 60 -2 15 -4 0 -4 -33z"/>
<path d="M5595 8030 c-3 -5 0 -7 8 -4 20 7 35 -15 40 -61 l4 -40 1 46 c2 44
-10 69 -34 69 -7 0 -16 -4 -19 -10z"/>
<path d="M5689 8023 c-13 -15 -12 -15 8 -5 24 13 56 6 50 -12 -2 -6 -17 -13
-33 -16 -23 -4 -29 -10 -29 -30 0 -22 4 -25 38 -25 37 -1 37 0 37 40 0 61 -39
87 -71 48z m59 -55 c-7 -21 -36 -34 -49 -21 -6 6 -8 16 -5 22 10 15 59 14 54
-1z"/>
<path d="M5807 8022 c-22 -25 -21 -55 2 -76 16 -14 23 -15 41 -6 19 10 21 9
18 -12 -2 -19 -9 -23 -35 -22 -18 1 -30 -2 -27 -7 6 -10 35 -12 58 -3 13 5 16
22 16 78 0 43 -4 66 -9 57 -6 -9 -11 -10 -15 -2 -10 16 -31 13 -49 -7z m53 -6
c19 -24 8 -61 -19 -64 -38 -6 -54 33 -25 62 19 20 28 20 44 2z"/>
<path d="M5926 8018 c-21 -29 -20 -41 2 -68 14 -18 25 -22 45 -16 15 3 27 12
27 18 0 9 -3 9 -12 0 -18 -18 -46 -14 -58 8 -10 18 -8 20 30 20 32 0 40 4 40
18 0 43 -49 56 -74 20z m48 6 c28 -11 18 -34 -14 -34 -30 0 -43 23 -17 33 6 3
13 6 14 6 1 1 8 -2 17 -5z"/>
<path d="M6104 7979 c21 -60 21 -61 2 -75 -11 -8 -15 -14 -8 -14 18 0 48 50
35 58 -6 4 -16 26 -23 50 -7 23 -16 42 -20 42 -4 0 2 -27 14 -61z"/>
<path d="M6152 8003 c-15 -50 -9 -52 11 -3 8 22 12 40 8 40 -4 0 -13 -17 -19
-37z"/>
<path d="M6218 8029 c-21 -12 -24 -69 -6 -87 28 -28 78 -1 78 43 0 25 -24 55
-43 55 -7 0 -20 -5 -29 -11z m56 -32 c8 -22 6 -31 -7 -44 -33 -34 -77 26 -46
63 18 22 42 13 53 -19z"/>
<path d="M6322 7999 c-2 -53 10 -68 50 -66 27 2 28 4 26 57 l-2 55 -3 -47 c-7
-78 -58 -74 -66 5 l-4 42 -1 -46z"/>
<path d="M6442 7980 c1 -50 2 -51 5 -13 3 28 11 47 24 57 20 14 20 14 -5 12
-25 -1 -26 -3 -24 -56z"/>
<path d="M6579 8023 c-13 -15 -12 -15 10 -4 19 11 26 10 39 -3 17 -16 12 -21
-33 -28 -14 -2 -20 -11 -20 -28 0 -22 4 -25 38 -25 37 -1 37 0 37 40 0 61 -39
87 -71 48z m59 -55 c-7 -21 -36 -34 -49 -21 -6 6 -8 16 -5 22 10 15 59 14 54
-1z"/>
<path d="M6698 8029 c-22 -13 -24 -72 -3 -89 16 -13 65 -6 65 10 0 6 -8 5 -19
-2 -15 -9 -23 -9 -35 1 -37 31 -5 97 35 73 10 -7 19 -8 19 -3 0 8 -24 21 -38
21 -4 0 -15 -5 -24 -11z"/>
<path d="M6807 8022 c-21 -23 -22 -56 -1 -76 20 -21 48 -20 65 1 13 15 12 15
-8 5 -30 -17 -41 -15 -53 8 -20 37 17 87 44 60 16 -16 30 -12 16 5 -17 20 -43
19 -63 -3z"/>
<path d="M6928 8029 c-21 -12 -24 -69 -6 -87 28 -28 78 -1 78 43 0 25 -24 55
-43 55 -7 0 -20 -5 -29 -11z m56 -32 c8 -22 6 -31 -7 -44 -33 -34 -77 26 -46
63 18 22 42 13 53 -19z"/>
<path d="M7032 7999 c-2 -53 10 -68 50 -66 27 2 28 4 26 57 l-2 55 -3 -47 c-7
-78 -58 -74 -66 5 l-4 42 -1 -46z"/>
<path d="M7153 7985 c0 -46 1 -50 4 -18 2 23 11 47 19 53 22 19 42 -4 47 -53
l4 -42 1 46 c2 55 -18 80 -48 61 -14 -9 -20 -8 -23 1 -3 7 -5 -15 -4 -48z"/>
<path d="M7403 8033 c-7 -2 -13 -9 -13 -15 0 -6 6 -6 15 2 18 15 45 6 45 -15
0 -9 -9 -15 -24 -15 -33 0 -53 -25 -36 -45 7 -8 20 -15 29 -14 10 0 8 4 -7 10
-31 12 -23 33 13 37 24 3 27 1 22 -17 -3 -12 -1 -24 4 -27 5 -3 9 17 9 44 0
56 -17 72 -57 55z"/>
<path d="M7503 7985 c0 -46 1 -50 4 -18 8 79 59 83 66 5 l3 -47 2 52 c2 44 -1
53 -18 58 -12 4 -27 2 -35 -5 -10 -8 -14 -8 -18 2 -3 7 -5 -14 -4 -47z"/>
<path d="M7861 7980 l2 -55 6 43 c4 24 16 48 27 56 18 13 17 14 -9 13 -26 -2
-27 -4 -26 -57z"/>
<path d="M7953 8033 c-7 -2 -13 -9 -13 -15 0 -6 6 -6 15 2 18 15 45 6 45 -15
0 -9 -9 -15 -24 -15 -33 0 -53 -25 -36 -45 7 -8 20 -15 29 -14 10 0 8 4 -7 10
-31 12 -23 33 13 37 24 3 27 1 22 -17 -3 -12 -1 -24 4 -27 5 -3 9 17 9 44 0
56 -17 72 -57 55z"/>
<path d="M8053 7985 c0 -46 1 -50 4 -18 8 79 59 83 66 5 l3 -47 2 52 c2 44 -1
53 -18 58 -12 4 -27 2 -35 -5 -10 -8 -14 -8 -18 2 -3 7 -5 -14 -4 -47z"/>
<path d="M8182 8031 c-21 -13 -10 -44 17 -51 14 -3 26 -11 29 -18 6 -18 -26
-26 -45 -11 -14 12 -16 12 -11 -1 3 -9 17 -15 34 -15 24 0 29 4 29 25 0 17 -7
26 -24 30 -14 3 -26 11 -29 18 -6 18 26 26 46 11 15 -13 16 -12 3 4 -15 19
-29 21 -49 8z"/>
<path d="M8279 8023 c-13 -15 -12 -15 8 -5 24 13 56 6 50 -12 -2 -6 -17 -13
-33 -16 -23 -4 -29 -10 -29 -30 0 -22 4 -25 38 -25 37 -1 37 0 37 40 0 61 -39
87 -71 48z m59 -55 c-7 -21 -36 -34 -49 -21 -6 6 -8 16 -5 22 10 15 59 14 54
-1z"/>
<path d="M8397 8022 c-21 -23 -22 -56 -1 -76 20 -21 48 -20 65 1 13 15 12 15
-8 5 -30 -17 -41 -15 -53 8 -20 37 17 87 44 60 16 -16 30 -12 16 5 -17 20 -43
19 -63 -3z"/>
<path d="M8573 7985 c0 -33 2 -45 4 -27 2 18 2 45 0 60 -2 15 -4 0 -4 -33z"/>
<path d="M8627 8022 c-21 -23 -22 -56 -1 -76 33 -34 74 -12 74 39 0 53 -41 73
-73 37z m51 -4 c7 -7 12 -24 12 -39 0 -36 -37 -51 -57 -23 -17 23 -16 39 3 58
19 19 26 20 42 4z"/>
<path d="M8743 7985 c0 -33 2 -45 4 -27 2 18 2 45 0 60 -2 15 -4 0 -4 -33z"/>
<path d="M8765 8030 c-3 -5 0 -7 8 -4 20 7 35 -15 40 -61 l4 -40 1 46 c2 44
-10 69 -34 69 -7 0 -16 -4 -19 -10z"/>
<path d="M8861 8026 c-15 -18 -7 -34 25 -46 13 -5 24 -14 24 -20 0 -18 -29
-23 -47 -9 -14 12 -16 12 -11 -1 6 -21 52 -24 68 -6 16 20 1 41 -35 50 -14 4
-25 10 -25 15 0 16 32 22 48 9 13 -11 14 -10 10 2 -6 21 -42 24 -57 6z"/>
<path d="M9024 8015 c-22 -34 -11 -73 22 -81 16 -4 30 -2 37 7 7 8 8 11 3 7
-18 -14 -45 -8 -56 12 -10 18 -8 20 30 20 33 0 40 3 40 20 0 18 -26 40 -49 40
-6 0 -18 -11 -27 -25z m56 0 c17 -21 9 -27 -31 -23 -31 3 -32 4 -15 21 21 21
30 21 46 2z"/>
<path d="M9273 7985 c0 -33 2 -45 4 -27 2 18 2 45 0 60 -2 15 -4 0 -4 -33z"/>
<path d="M9338 8029 c-22 -13 -24 -72 -3 -89 16 -13 65 -6 65 10 0 6 -8 5 -19
-2 -15 -9 -23 -9 -35 1 -37 31 -5 97 35 73 10 -7 19 -8 19 -3 0 8 -24 21 -38
21 -4 0 -15 -5 -24 -11z"/>
<path d="M9433 7985 c0 -33 2 -45 4 -27 2 18 2 45 0 60 -2 15 -4 0 -4 -33z"/>
<path d="M9496 8024 c-20 -19 -21 -68 -2 -84 18 -14 58 -10 64 8 3 11 0 11
-16 1 -17 -10 -23 -10 -36 0 -26 22 -19 31 24 31 28 0 40 4 40 14 0 18 -27 46
-45 46 -7 0 -21 -7 -29 -16z m52 -6 c20 -20 14 -28 -23 -28 -19 0 -35 4 -35 8
0 12 22 32 35 32 6 0 16 -5 23 -12z"/>
<path d="M9603 7985 c0 -46 1 -50 4 -18 2 23 11 47 19 53 22 19 42 -4 47 -53
l4 -42 1 46 c2 55 -18 80 -48 61 -14 -9 -20 -8 -23 1 -3 7 -5 -15 -4 -48z"/>
<path d="M9831 8032 c-1 -7 6 -29 14 -49 20 -47 19 -70 -2 -82 -17 -10 -17
-10 -1 -11 9 0 19 4 22 8 15 24 54 142 47 142 -5 0 -14 -20 -21 -45 -14 -51
-18 -50 -42 8 -9 23 -17 36 -17 29z"/>
<path d="M9940 7939 c0 -5 5 -7 10 -4 6 3 10 8 10 11 0 2 -4 4 -10 4 -5 0 -10
-5 -10 -11z"/>
<path d="M365 7771 c-11 -5 -29 -19 -40 -31 -19 -21 -20 -36 -20 -311 l0 -289
28 -27 27 -28 994 -3 c983 -2 993 -2 1016 18 l23 20 -23 0 -23 0 23 20 23 20
-23 0 -23 0 23 20 23 20 -23 0 -23 0 23 20 23 20 -23 0 -23 0 23 20 23 20 -23
0 -23 0 23 20 23 20 -23 0 -23 0 23 20 23 20 -23 0 -23 0 23 20 23 20 -23 0
-23 0 23 20 23 20 -23 0 -23 0 23 20 23 20 -23 0 -23 0 23 20 23 20 -23 0 -23
0 23 20 23 20 -23 0 -23 0 23 20 23 20 -23 0 -23 0 23 20 23 20 -23 0 -23 0
23 20 23 20 -23 0 -23 0 23 20 23 20 -23 0 -23 0 23 20 23 20 -24 0 c-19 0
-21 2 -9 10 19 12 -1966 13 -1995 1z m328 -230 c83 -58 87 -64 87 -146 0 -92
-4 -95 -133 -95 -120 0 -129 8 -125 106 l3 68 60 48 c32 26 61 48 63 48 2 0
22 -13 45 -29z m307 -61 c0 -25 4 -30 25 -30 21 0 25 5 25 30 0 23 4 30 20 30
18 0 20 -7 20 -75 0 -68 -2 -75 -20 -75 -16 0 -20 7 -20 30 0 25 -4 30 -25 30
-21 0 -25 -5 -25 -30 0 -23 -4 -30 -20 -30 -18 0 -20 7 -20 75 0 68 2 75 20
75 16 0 20 -7 20 -30z m210 -29 c18 -35 12 -69 -16 -87 -53 -35 -113 21 -86
81 10 21 18 25 51 25 30 0 43 -5 51 -19z m178 -38 c3 -48 1 -53 -17 -53 -18 0
-21 6 -21 40 0 22 -4 40 -10 40 -5 0 -10 -18 -10 -40 0 -33 -3 -40 -20 -40
-17 0 -20 7 -20 40 0 22 -4 40 -10 40 -5 0 -10 -18 -10 -40 0 -33 -3 -40 -20
-40 -18 0 -20 7 -20 55 l0 56 78 -3 77 -3 3 -52z m127 23 c8 -23 7 -30 -4 -34
-10 -3 -11 -6 -1 -12 9 -6 5 -13 -14 -26 -55 -35 -115 20 -88 81 11 23 17 26
54 23 37 -3 44 -7 53 -32z"/>
<path d="M596 7493 l-47 -36 3 -61 3 -61 95 0 95 0 3 60 3 60 -45 38 c-25 20
-49 37 -54 37 -5 0 -30 -17 -56 -37z m119 -128 c0 -5 -28 -11 -62 -13 -52 -2
-63 0 -63 13 0 13 11 15 63 13 34 -2 62 -7 62 -13z"/>
<path d="M1143 7424 c-3 -8 1 -23 10 -32 15 -14 17 -14 23 1 8 21 -1 47 -16
47 -6 0 -13 -7 -17 -16z"/>
<path d="M1448 7433 c7 -3 16 -2 19 1 4 3 -2 6 -13 5 -11 0 -14 -3 -6 -6z"/>
<path d="M1448 7388 c9 -9 15 -9 24 0 9 9 7 12 -12 12 -19 0 -21 -3 -12 -12z"/>
<path d="M2408 7753 c7 -3 16 -2 19 1 4 3 -2 6 -13 5 -11 0 -14 -3 -6 -6z"/>
<path d="M2408 7673 c7 -3 16 -2 19 1 4 3 -2 6 -13 5 -11 0 -14 -3 -6 -6z"/>
<path d="M2408 7593 c7 -3 16 -2 19 1 4 3 -2 6 -13 5 -11 0 -14 -3 -6 -6z"/>
<path d="M2408 7513 c7 -3 16 -2 19 1 4 3 -2 6 -13 5 -11 0 -14 -3 -6 -6z"/>
<path d="M2408 7433 c7 -3 16 -2 19 1 4 3 -2 6 -13 5 -11 0 -14 -3 -6 -6z"/>
<path d="M2408 7353 c7 -3 16 -2 19 1 4 3 -2 6 -13 5 -11 0 -14 -3 -6 -6z"/>
<path d="M2408 7273 c7 -3 16 -2 19 1 4 3 -2 6 -13 5 -11 0 -14 -3 -6 -6z"/>
<path d="M2408 7193 c7 -3 16 -2 19 1 4 3 -2 6 -13 5 -11 0 -14 -3 -6 -6z"/>
<path d="M2408 7113 c7 -3 16 -2 19 1 4 3 -2 6 -13 5 -11 0 -14 -3 -6 -6z"/>
<path d="M4987 7089 c-247 -60 -446 -250 -522 -499 -25 -83 -31 -268 -11 -355
50 -212 192 -392 388 -490 120 -60 212 -79 352 -72 191 9 337 71 466 198 107
105 108 96 -15 179 l-106 71 -63 -59 c-109 -102 -260 -149 -391 -122 -246 50
-409 271 -377 509 28 196 186 362 372 388 l55 8 3 133 3 132 -38 -1 c-21 0
-73 -9 -116 -20z"/>
<path d="M5182 6978 l3 -133 55 -7 c30 -5 82 -21 115 -37 226 -111 322 -373
219 -600 -13 -30 -23 -55 -22 -56 2 -1 51 -34 110 -73 l106 -71 19 32 c107
183 122 437 39 635 -70 165 -184 285 -350 369 -76 38 -199 73 -258 73 l-39 0
3 -132z"/>
<path d="M6230 6949 l0 -80 46 3 c35 2 50 9 61 25 13 19 12 24 -5 41 -17 17
-18 22 -6 26 17 7 18 38 2 54 -7 7 -31 12 -55 12 l-43 0 0 -81z m83 47 c7 -19
-12 -36 -40 -36 -18 0 -23 6 -23 25 0 21 5 25 29 25 16 0 31 -6 34 -14z m4
-72 c7 -19 -13 -34 -44 -34 -18 0 -23 6 -23 25 0 21 5 25 30 25 19 0 33 -6 37
-16z"/>
<path d="M6640 6950 c0 -64 3 -80 15 -80 9 0 15 9 15 25 0 14 3 25 6 25 3 0
15 -11 26 -25 11 -14 26 -25 34 -25 11 0 8 10 -12 35 l-27 36 23 24 c30 32 6
34 -27 3 l-23 -21 0 41 c0 31 -4 42 -15 42 -12 0 -15 -16 -15 -80z"/>
<path d="M6850 6963 c-13 -38 -25 -74 -28 -80 -2 -7 3 -13 11 -13 8 0 17 9 20
20 4 15 14 20 41 20 25 0 36 -5 36 -14 0 -17 18 -31 27 -22 3 3 -6 39 -22 81
-35 98 -53 100 -85 8z m54 15 c10 -38 7 -48 -15 -48 -17 0 -20 4 -15 23 3 12
6 28 6 35 0 21 17 13 24 -10z"/>
<path d="M8000 7010 c-9 -16 -8 -20 5 -20 8 0 15 5 15 10 0 6 11 10 25 10 39
0 32 -39 -15 -85 -22 -21 -40 -43 -40 -47 0 -4 25 -8 55 -8 30 0 55 5 55 10 0
6 -17 10 -37 10 l-37 0 26 28 c60 64 57 112 -7 112 -24 0 -37 -6 -45 -20z"/>
<path d="M7670 7006 c0 -8 -6 -17 -12 -19 -10 -4 -10 -7 -1 -14 6 -5 13 -29
15 -53 2 -38 7 -46 26 -48 12 -2 22 1 22 7 0 6 -7 11 -15 11 -19 0 -21 75 -2
84 10 5 10 7 0 12 -7 3 -13 12 -13 20 0 8 -4 14 -10 14 -5 0 -10 -6 -10 -14z"/>
<path d="M6380 6975 c-10 -12 -7 -14 21 -12 40 2 56 -16 19 -21 -32 -5 -50
-20 -50 -43 0 -19 20 -26 73 -27 26 0 27 2 27 47 0 26 -5 52 -12 59 -17 17
-63 15 -78 -3z m70 -49 c0 -18 -15 -36 -30 -36 -27 0 -34 17 -13 29 18 11 43
14 43 7z"/>
<path d="M6510 6930 c0 -71 18 -81 22 -12 3 40 6 47 26 50 20 3 22 0 22 -47 0
-39 4 -51 16 -51 12 0 14 10 12 51 -3 60 -24 82 -58 61 -12 -7 -20 -8 -20 -2
0 5 -4 10 -10 10 -6 0 -10 -27 -10 -60z"/>
<path d="M6996 6968 c-9 -12 -16 -29 -16 -38 0 -27 30 -60 55 -60 28 0 65 32
45 38 -7 3 -16 -1 -20 -8 -15 -24 -45 -7 -48 28 -4 37 19 53 48 34 22 -13 34
-4 19 15 -18 21 -66 16 -83 -9z"/>
<path d="M7132 6978 c-20 -20 -15 -86 7 -98 28 -14 57 -12 71 5 16 19 5 34
-12 17 -31 -31 -71 9 -54 53 6 17 42 20 51 5 4 -6 11 -8 16 -4 17 10 -11 34
-40 34 -15 0 -32 -5 -39 -12z"/>
<path d="M7262 6978 c-21 -21 -15 -86 9 -98 31 -17 62 -8 79 23 13 24 13 30 0
55 -17 30 -66 42 -88 20z m63 -48 c0 -29 -4 -36 -22 -38 -17 -3 -24 3 -29 22
-9 37 2 58 28 54 19 -2 23 -9 23 -38z"/>
<path d="M7392 6939 c3 -60 24 -82 58 -61 12 7 20 8 20 2 0 -5 5 -10 10 -10 6
0 10 27 10 60 0 33 -4 60 -10 60 -5 0 -10 -17 -10 -39 0 -41 -20 -67 -45 -57
-10 4 -15 19 -15 51 0 25 -5 45 -11 45 -6 0 -9 -20 -7 -51z"/>
<path d="M7530 6930 c0 -71 18 -81 22 -12 3 40 6 47 26 50 20 3 22 0 22 -47 0
-39 4 -51 16 -51 12 0 14 10 12 51 -3 60 -24 82 -58 61 -12 -7 -20 -8 -20 -2
0 5 -4 10 -10 10 -6 0 -10 -27 -10 -60z"/>
<path d="M7753 6984 c-26 -11 -14 -45 22 -60 19 -8 35 -19 35 -25 0 -8 -12
-10 -35 -6 -35 6 -48 -6 -19 -17 26 -10 52 -7 68 9 21 21 10 43 -27 53 -17 4
-33 14 -35 21 -4 11 4 13 32 8 27 -4 36 -3 33 6 -4 13 -53 20 -74 11z"/>
<path d="M7870 6965 c0 -9 5 -15 11 -13 6 2 11 8 11 13 0 5 -5 11 -11 13 -6 2
-11 -4 -11 -13z"/>
<path d="M7870 6885 c0 -9 5 -15 11 -13 6 2 11 8 11 13 0 5 -5 11 -11 13 -6 2
-11 -4 -11 -13z"/>
<path d="M579 6637 c-22 -15 -39 -38 -49 -65 -13 -37 -13 -47 0 -84 17 -49 67
-88 112 -88 104 0 168 100 120 189 -36 67 -121 90 -183 48z m141 -15 c32 -24
55 -83 46 -118 -10 -38 -57 -81 -99 -89 -76 -14 -147 55 -133 130 8 39 40 83
70 96 29 12 86 3 116 -19z"/>
<path d="M640 6600 c0 -5 -6 -10 -14 -10 -25 0 -29 -33 -7 -52 12 -9 21 -26
21 -37 0 -22 -9 -26 -26 -13 -5 4 2 -4 15 -18 16 -15 26 -20 29 -12 2 7 10 12
17 12 22 0 25 30 5 50 -21 21 -27 60 -10 60 6 0 10 -5 10 -12 0 -6 3 -8 7 -5
3 4 -3 16 -15 27 -24 22 -32 25 -32 10z m0 -40 c0 -19 -11 -26 -23 -14 -8 8 3
34 14 34 5 0 9 -9 9 -20z m43 -54 c6 -15 -1 -26 -15 -26 -4 0 -8 9 -8 20 0 23
15 27 23 6z"/>
<path d="M970 6530 c0 -40 4 -70 10 -70 6 0 10 26 11 58 l1 57 20 -58 c11 -32
25 -56 31 -54 6 2 18 24 26 49 23 68 31 69 31 5 0 -31 5 -57 10 -57 6 0 10 30
10 70 0 62 -2 70 -19 70 -14 0 -25 -14 -39 -52 l-20 -53 -11 28 c-6 15 -14 39
-17 52 -4 16 -13 25 -25 25 -17 0 -19 -8 -19 -70z"/>
<path d="M1320 6530 l0 -70 39 0 c56 0 88 34 57 62 -9 9 -10 17 -3 29 19 31 1
49 -48 49 l-45 0 0 -70z m69 51 c21 -13 5 -41 -24 -41 -18 0 -25 5 -25 18 0
31 21 41 49 23z m0 -60 c21 -13 5 -41 -24 -41 -18 0 -25 5 -25 18 0 31 21 41
49 23z"/>
<path d="M1690 6530 c0 -40 4 -70 10 -70 6 0 10 9 10 20 0 11 4 20 10 20 5 0
15 -9 22 -20 7 -11 19 -20 26 -20 9 0 7 9 -8 31 l-22 30 23 25 c19 20 20 24 6
24 -9 0 -22 -9 -29 -20 -19 -29 -28 -24 -28 15 0 19 -4 35 -10 35 -6 0 -10
-30 -10 -70z"/>
<path d="M1160 6521 c24 -62 25 -81 5 -81 -8 0 -15 -5 -15 -11 0 -6 8 -9 18
-7 26 5 89 148 65 148 -6 0 -15 -18 -22 -41 -13 -45 -20 -44 -37 4 -6 17 -16
33 -22 35 -8 2 -5 -15 8 -47z"/>
<path d="M1460 6555 c-11 -13 -8 -14 20 -8 25 5 32 3 28 -8 -2 -7 -15 -16 -29
-19 -17 -4 -24 -13 -24 -30 0 -22 5 -25 38 -27 l37 -1 0 48 c0 34 -4 50 -16
54 -25 10 -41 7 -54 -9z m50 -59 c0 -17 -27 -29 -35 -16 -4 6 -3 15 0 20 9 15
35 12 35 -4z"/>
<path d="M1570 6514 c0 -30 5 -54 10 -54 6 0 10 18 10 40 0 28 5 43 16 47 21
8 34 -13 34 -54 0 -18 5 -33 10 -33 13 0 13 70 0 90 -5 8 -25 15 -45 16 l-35
1 0 -53z"/>
<path d="M1811 6557 c-17 -21 -4 -44 30 -51 19 -3 28 -10 23 -17 -4 -6 -19 -9
-36 -5 -26 5 -29 4 -18 -9 16 -19 54 -19 70 0 16 19 0 40 -36 49 -14 4 -22 11
-18 17 3 6 17 8 31 4 18 -4 24 -2 21 7 -6 18 -52 22 -67 5z"/>
<path d="M6220 6450 c0 -5 9 -10 20 -10 16 0 20 -8 23 -57 l3 -58 2 58 c2 50
5 57 22 57 11 0 20 5 20 10 0 6 -20 10 -45 10 -25 0 -45 -4 -45 -10z"/>
<path d="M6593 6395 c0 -38 2 -53 4 -32 2 20 2 52 0 70 -2 17 -4 1 -4 -38z"/>
<path d="M6700 6440 c-24 -24 -26 -57 -4 -88 17 -24 53 -29 72 -10 21 21 13
29 -12 13 -23 -15 -26 -15 -45 4 -24 24 -25 34 -11 62 12 21 50 25 68 7 9 -9
12 -9 12 0 0 12 -31 32 -49 32 -6 0 -20 -9 -31 -20z"/>
<path d="M7370 6395 c0 -62 1 -65 24 -65 40 0 56 11 56 36 0 13 -5 24 -10 24
-6 0 -5 8 2 21 11 17 10 22 -6 35 -11 8 -30 14 -43 14 -22 0 -23 -4 -23 -65z
m63 39 c12 -12 -6 -34 -29 -34 -17 0 -24 6 -24 20 0 14 7 20 23 20 13 0 26 -3
30 -6z m4 -60 c7 -18 -12 -34 -39 -34 -13 0 -18 8 -18 25 0 20 5 25 25 25 14
0 28 -7 32 -16z"/>
<path d="M7583 6395 c0 -38 2 -53 4 -32 2 20 2 52 0 70 -2 17 -4 1 -4 -38z"/>
<path d="M6432 6430 c-7 -11 -8 -20 -3 -20 6 0 11 -17 13 -37 2 -20 9 -38 16
-39 7 -1 8 0 2 3 -15 7 -13 73 3 73 8 0 9 3 1 8 -6 4 -13 13 -15 20 -3 8 -8 5
-17 -8z"/>
<path d="M7258 6433 c-7 -33 7 -96 22 -101 12 -4 13 -2 3 9 -15 15 -17 66 -4
71 5 2 4 11 -3 21 -13 17 -14 17 -18 0z"/>
<path d="M6330 6405 c-18 -22 -2 -69 26 -73 28 -4 46 20 42 55 -2 22 -9 29
-29 31 -15 2 -31 -4 -39 -13z m55 -30 c0 -36 -28 -46 -44 -16 -15 27 -3 53 23
49 16 -2 21 -10 21 -33z"/>
<path d="M6495 6411 c-4 -7 4 -9 24 -5 30 6 30 6 27 -30 -1 -21 2 -39 6 -42 5
-3 8 14 6 38 -3 38 -6 43 -30 46 -14 2 -29 -2 -33 -7z"/>
<path d="M6811 6390 c-1 -35 13 -60 33 -60 5 0 2 8 -7 18 -8 9 -17 31 -20 47
-4 29 -4 28 -6 -5z"/>
<path d="M6868 6379 c-2 -22 0 -43 4 -45 4 -3 8 15 8 40 0 57 -7 60 -12 5z"/>
<path d="M6922 6370 c1 -40 2 -41 5 -10 2 19 11 40 20 47 13 10 13 12 -6 10
-18 -1 -21 -7 -19 -47z"/>
<path d="M6992 6370 c1 -40 2 -41 5 -10 2 19 11 40 20 47 13 10 13 12 -6 10
-18 -1 -21 -7 -19 -47z"/>
<path d="M7057 6413 c-11 -11 -8 -58 5 -71 14 -14 44 -16 53 -3 3 6 -7 9 -21
8 -15 -1 -29 4 -31 11 -3 8 5 12 25 12 36 0 44 8 31 31 -9 18 -49 26 -62 12z
m53 -18 c0 -9 -9 -15 -25 -15 -24 0 -32 10 -18 23 12 13 43 7 43 -8z"/>
<path d="M7195 6411 c13 -5 22 -21 26 -47 l7 -39 -2 45 c-1 40 -4 45 -26 47
-22 2 -23 2 -5 -6z"/>
<path d="M7486 6412 c-3 -5 5 -7 18 -5 13 3 27 0 30 -6 5 -7 -5 -14 -24 -17
-24 -5 -30 -11 -28 -28 2 -16 10 -21 36 -21 32 -1 33 0 30 40 -3 35 -6 40 -30
43 -14 2 -29 -1 -32 -6z m43 -58 c-6 -8 -18 -14 -25 -14 -20 0 -17 28 4 33 25
5 35 -3 21 -19z"/>
<path d="M7625 6411 c-4 -7 4 -9 24 -5 30 6 30 6 27 -30 -1 -21 2 -39 6 -42 5
-3 8 14 6 38 -3 38 -6 43 -30 46 -14 2 -29 -2 -33 -7z"/>
<path d="M7765 6411 c13 -5 22 -21 26 -47 l7 -39 -2 45 c-1 40 -4 45 -26 47
-22 2 -23 2 -5 -6z"/>
<path d="M7837 6413 c-12 -12 -7 -60 8 -73 18 -15 47 -10 53 10 5 13 3 13 -11
1 -25 -20 -49 -6 -45 26 2 23 8 28 30 28 14 -1 24 3 22 7 -6 10 -48 11 -57 1z"/>
<path d="M7937 6414 c-4 -4 -7 -22 -7 -40 0 -28 5 -35 26 -40 14 -4 30 -2 36
4 8 8 3 11 -17 9 -15 -1 -30 4 -32 11 -3 8 6 12 27 12 27 0 31 3 28 23 -2 15
-11 23 -28 25 -14 2 -29 0 -33 -4z m53 -19 c0 -9 -9 -15 -25 -15 -16 0 -25 6
-25 15 0 9 9 15 25 15 16 0 25 -6 25 -15z"/>
<path d="M7163 6370 c0 -25 2 -35 4 -22 2 12 2 32 0 45 -2 12 -4 2 -4 -23z"/>
<path d="M7733 6370 c0 -25 2 -35 4 -22 2 12 2 32 0 45 -2 12 -4 2 -4 -23z"/>
<path d="M6494 6365 c-8 -19 3 -35 24 -35 16 1 16 1 0 11 -10 5 -18 14 -18 19
0 5 8 11 18 13 16 4 16 5 -1 6 -10 0 -20 -6 -23 -14z"/>
<path d="M7624 6365 c-8 -19 3 -35 24 -35 16 1 16 1 0 11 -10 5 -18 14 -18 19
0 5 8 11 18 13 16 4 16 5 -1 6 -10 0 -20 -6 -23 -14z"/>
<path d="M6320 6090 c0 -13 -7 -20 -18 -20 -10 0 -28 -10 -40 -23 -38 -41 -25
-97 28 -115 27 -10 30 -15 30 -51 0 -45 -21 -56 -40 -21 -13 24 -50 27 -50 5
0 -21 48 -65 70 -65 10 0 21 -10 25 -22 l8 -23 4 23 c3 13 12 22 22 22 34 0
71 39 71 74 0 36 -19 59 -63 75 -22 9 -27 17 -27 46 0 38 18 47 40 20 12 -14
50 -21 50 -9 0 19 -27 48 -56 60 -19 8 -34 21 -34 29 0 8 -4 15 -10 15 -5 0
-10 -9 -10 -20z m0 -95 c0 -26 -4 -33 -14 -29 -29 11 -29 64 0 64 9 0 14 -12
14 -35z m63 -107 c8 -12 7 -21 -2 -32 -23 -28 -41 -19 -41 20 0 28 4 35 16 32
9 -2 22 -10 27 -20z"/>
<path d="M6505 6045 c-14 -13 -25 -29 -25 -35 0 -19 41 -10 60 12 15 19 22 21
46 13 49 -18 40 -75 -12 -75 -17 0 -24 -6 -24 -20 0 -15 7 -20 24 -20 14 0 32
-7 40 -16 19 -18 19 -20 6 -45 -13 -23 -72 -26 -90 -4 -16 19 -50 20 -50 1 0
-27 50 -56 97 -56 33 0 50 6 68 25 34 33 33 79 0 101 -25 17 -25 17 -5 31 26
18 26 67 0 93 -30 30 -103 28 -135 -5z"/>
<path d="M6741 6044 c-12 -15 -21 -33 -21 -40 0 -22 38 -16 45 6 10 31 55 38
76 12 25 -31 15 -51 -57 -123 -90 -89 -87 -99 26 -99 83 0 90 1 90 20 0 18 -7
20 -55 20 -30 0 -55 3 -55 7 0 4 22 30 50 58 63 64 73 103 37 139 -37 37 -107
37 -136 0z"/>
<path d="M6988 6053 c-29 -33 -38 -62 -38 -118 0 -91 33 -135 102 -135 38 0
74 27 89 67 23 62 1 170 -39 192 -32 17 -97 13 -114 -6z m91 -32 c28 -28 36
-82 20 -133 -13 -40 -17 -43 -49 -43 -45 0 -62 31 -57 102 6 81 45 115 86 74z"/>
<path d="M7326 6039 c-15 -17 -27 -44 -27 -62 -6 -124 25 -177 104 -177 65 0
107 79 93 174 -10 64 -43 96 -100 96 -37 0 -48 -5 -70 -31z m104 -19 c20 -20
25 -46 20 -110 -3 -52 -16 -70 -50 -70 -39 0 -60 32 -60 93 0 91 44 133 90 87z"/>
<path d="M7587 6058 c-23 -18 -47 -80 -47 -123 0 -113 100 -176 169 -107 49
49 49 166 0 218 -25 27 -93 33 -122 12z m79 -26 c35 -23 47 -129 18 -170 -18
-27 -61 -29 -80 -4 -8 10 -13 43 -14 80 0 49 4 66 20 82 21 21 38 25 56 12z"/>
<path d="M7202 5828 c2 -15 10 -23 23 -23 30 0 27 39 -3 43 -20 3 -23 0 -20
-20z"/>
<path d="M536 5744 c-13 -12 -16 -39 -16 -124 0 -110 7 -133 35 -110 12 10 19
10 33 -1 16 -12 16 -12 0 6 -14 15 -21 17 -30 7 -7 -7 -16 -12 -20 -12 -13 0
-10 214 4 228 7 7 41 12 83 12 l70 0 -3 -120 c-3 -118 -4 -120 -24 -109 -17 9
-24 7 -42 -12 l-21 -23 23 19 c17 14 25 16 34 7 27 -27 37 -12 40 56 3 63 4
67 28 70 36 5 50 20 50 53 0 55 -28 69 -134 69 -73 0 -98 -4 -110 -16z m219
-10 c10 -10 15 -29 13 -48 -2 -25 -8 -32 -30 -34 -27 -3 -28 -1 -28 41 0 59
14 72 45 41z"/>
<path d="M1810 5700 c0 -5 7 -10 16 -10 8 0 12 5 9 10 -3 6 -10 10 -16 10 -5
0 -9 -4 -9 -10z"/>
<path d="M2310 5700 c0 -5 5 -10 10 -10 6 0 10 5 10 10 0 6 -4 10 -10 10 -5 0
-10 -4 -10 -10z"/>
<path d="M980 5691 c23 -6 25 -12 28 -69 4 -82 22 -80 22 2 0 59 2 65 23 69
12 2 -5 4 -38 5 -39 0 -51 -2 -35 -7z"/>
<path d="M2160 5630 c0 -70 16 -98 22 -37 3 29 6 32 38 32 32 0 35 -3 38 -32
6 -61 22 -33 22 37 0 68 -15 98 -22 43 -3 -25 -7 -28 -38 -28 -31 0 -35 3 -38
28 -7 55 -22 25 -22 -43z"/>
<path d="M1740 5673 c-10 -12 -11 -18 -2 -21 7 -2 12 -21 12 -43 0 -38 21 -62
38 -44 4 4 1 10 -5 12 -17 6 -17 70 -1 75 9 3 8 9 -4 21 -20 20 -19 20 -38 0z"/>
<path d="M2467 5677 c-6 -15 6 -87 17 -105 9 -15 36 -16 36 -2 0 6 -4 10 -10
10 -15 0 -12 68 2 72 9 3 8 9 -4 21 -20 20 -34 22 -41 4z"/>
<path d="M618 5663 c6 -2 18 -2 25 0 6 3 1 5 -13 5 -14 0 -19 -2 -12 -5z"/>
<path d="M1090 5614 c0 -30 5 -54 10 -54 6 0 10 18 10 40 0 27 5 43 15 46 23
9 18 22 -10 22 -24 0 -25 -4 -25 -54z"/>
<path d="M1171 5656 c-10 -12 -7 -14 16 -13 38 3 44 -17 7 -23 -23 -4 -29 -10
-29 -30 0 -23 4 -25 43 -26 l42 -1 0 42 c0 22 -5 46 -12 53 -16 16 -53 15 -67
-2z m59 -56 c0 -15 -38 -32 -45 -20 -3 5 -3 15 0 20 8 13 45 13 45 0z"/>
<path d="M1280 5615 c0 -65 17 -74 22 -12 2 34 7 42 23 42 16 0 21 -8 23 -42
4 -56 22 -55 22 1 0 53 -21 77 -51 58 -11 -7 -19 -8 -19 -2 0 5 -4 10 -10 10
-5 0 -10 -25 -10 -55z"/>
<path d="M1412 5658 c-20 -20 -13 -39 18 -49 40 -14 39 -33 -1 -25 -22 4 -29
2 -26 -7 2 -6 19 -12 38 -12 29 0 34 3 34 25 0 17 -7 26 -24 30 -14 3 -27 12
-29 19 -4 11 3 13 27 8 32 -7 43 6 15 17 -24 9 -39 7 -52 -6z"/>
<path d="M1520 5655 c-11 -13 -8 -14 20 -8 25 5 32 3 28 -8 -2 -7 -15 -16 -29
-19 -17 -4 -24 -13 -24 -30 0 -22 5 -25 38 -27 l37 -1 0 48 c0 34 -4 50 -16
54 -25 10 -41 7 -54 -9z m50 -59 c0 -17 -27 -29 -35 -16 -4 6 -3 15 0 20 9 15
35 12 35 -4z"/>
<path d="M1637 5652 c-42 -46 0 -108 57 -86 27 11 17 24 -13 18 -23 -5 -30 -2
-35 14 -11 34 4 55 35 48 31 -6 40 8 13 18 -26 10 -40 7 -57 -12z"/>
<path d="M1810 5615 c0 -30 5 -55 10 -55 6 0 10 25 10 55 0 30 -4 55 -10 55
-5 0 -10 -25 -10 -55z"/>
<path d="M1877 5652 c-32 -35 -11 -92 33 -92 44 0 66 62 34 94 -21 21 -47 20
-67 -2z m58 -37 c0 -23 -5 -31 -21 -33 -24 -3 -38 20 -28 50 4 13 13 18 27 16
17 -2 22 -10 22 -33z"/>
<path d="M1990 5615 c0 -65 17 -74 22 -12 2 34 7 42 23 42 16 0 21 -8 23 -42
4 -56 22 -55 22 1 0 53 -21 77 -51 58 -11 -7 -19 -8 -19 -2 0 5 -4 10 -10 10
-5 0 -10 -25 -10 -55z"/>
<path d="M2310 5615 c0 -30 5 -55 10 -55 6 0 10 25 10 55 0 30 -4 55 -10 55
-5 0 -10 -25 -10 -55z"/>
<path d="M2372 5658 c-20 -20 -13 -39 18 -49 40 -14 39 -33 -1 -25 -22 4 -29
2 -26 -7 2 -6 19 -12 38 -12 29 0 34 3 34 25 0 17 -7 26 -24 30 -14 3 -27 12
-29 19 -4 11 3 13 27 8 32 -7 43 6 15 17 -24 9 -39 7 -52 -6z"/>
<path d="M2558 5659 c-21 -12 -24 -69 -6 -87 20 -20 56 -14 74 12 31 48 -20
104 -68 75z m50 -47 c3 -30 1 -33 -20 -30 -23 3 -34 27 -24 54 11 28 41 11 44
-24z"/>
<path d="M2660 5613 c0 -29 5 -53 10 -53 6 0 10 18 10 41 0 32 4 42 20 46 30
8 24 20 -10 20 -30 0 -30 -1 -30 -54z"/>
<path d="M2743 5653 c31 -93 32 -102 12 -118 -20 -14 -20 -14 2 -15 26 0 27 1
58 84 14 36 20 66 15 66 -6 0 -15 -12 -21 -27 -5 -16 -12 -35 -15 -43 -4 -10
-12 0 -22 28 -15 40 -41 62 -29 25z"/>
<path d="M618 5613 c6 -2 18 -2 25 0 6 3 1 5 -13 5 -14 0 -19 -2 -12 -5z"/>
<path d="M579 4837 c-22 -15 -39 -38 -49 -65 -13 -37 -13 -47 0 -84 17 -49 67
-88 112 -88 67 0 138 59 138 115 0 13 -7 5 -19 -21 -33 -71 -100 -100 -164
-69 -95 45 -79 184 24 221 25 9 28 13 13 13 -12 1 -36 -9 -55 -22z"/>
<path d="M740 4851 c14 -4 27 -17 31 -31 6 -23 7 -22 8 8 1 30 -1 32 -31 31
-30 -1 -31 -2 -8 -8z"/>
<path d="M729 4813 l-24 -28 28 24 c25 23 32 31 24 31 -2 0 -14 -12 -28 -27z"/>
<path d="M1523 4793 c-4 -10 -11 -22 -17 -26 -8 -6 -7 -10 2 -14 7 -3 12 -23
12 -49 0 -24 5 -44 10 -44 6 0 10 20 10 44 0 26 5 46 13 49 9 4 8 8 -3 16 -13
9 -12 12 5 25 20 15 20 15 -3 16 -13 0 -25 -8 -29 -17z"/>
<path d="M980 4791 c23 -6 25 -12 28 -69 4 -82 22 -80 22 2 0 59 2 65 23 69
12 2 -5 4 -38 5 -39 0 -51 -2 -35 -7z"/>
<path d="M1840 4730 c0 -40 4 -70 10 -70 6 0 10 14 10 30 0 27 3 30 30 30 17
0 30 5 30 10 0 6 -13 10 -30 10 -25 0 -30 4 -30 24 0 20 6 25 33 29 28 3 26 4
-10 5 l-43 2 0 -70z"/>
<path d="M2260 4775 c0 -23 -2 -24 -20 -13 -16 10 -23 10 -36 -4 -19 -19 -22
-62 -5 -82 7 -8 27 -14 46 -13 l35 1 0 68 c0 39 -4 68 -10 68 -5 0 -10 -11
-10 -25z m-5 -60 c0 -23 -4 -30 -20 -30 -21 0 -31 25 -21 51 11 28 41 12 41
-21z"/>
<path d="M6411 4790 c-16 -9 -6 -30 15 -30 15 0 20 25 6 34 -4 2 -14 1 -21 -4z"/>
<path d="M625 4770 c-10 -11 -13 -20 -7 -20 6 0 13 6 15 13 4 7 6 6 6 -5 1 -9
-5 -19 -11 -21 -10 -4 -10 -6 0 -6 6 -1 12 -11 12 -22 0 -19 -2 -20 -17 -8
-10 7 -8 2 4 -11 22 -23 23 -23 43 -5 18 16 19 20 5 35 -18 20 -21 54 -2 44 8
-5 8 -2 -2 9 -17 22 -24 21 -46 -3z m50 -59 c3 -5 1 -12 -5 -16 -5 -3 -10 1
-10 9 0 18 6 21 15 7z"/>
<path d="M4127 4783 c-4 -3 -7 -53 -7 -110 0 -96 1 -103 20 -103 17 0 20 7 20
40 0 35 3 40 23 40 18 0 28 -10 42 -40 12 -26 25 -40 37 -40 23 0 23 7 -2 48
l-20 33 22 29 c41 56 -2 110 -88 110 -22 0 -44 -3 -47 -7z m101 -35 c17 -17
15 -55 -4 -62 -9 -3 -27 -6 -40 -6 -21 0 -24 4 -24 40 0 37 2 40 28 40 15 0
33 -5 40 -12z"/>
<path d="M1090 4714 c0 -30 5 -54 10 -54 6 0 10 18 10 40 0 27 5 43 15 46 23
9 18 22 -10 22 -24 0 -25 -4 -25 -54z"/>
<path d="M1171 4756 c-10 -12 -7 -14 16 -13 38 3 44 -17 7 -23 -23 -4 -29 -10
-29 -30 0 -23 4 -25 43 -26 l42 -1 0 42 c0 22 -5 46 -12 53 -16 16 -53 15 -67
-2z m59 -56 c0 -15 -38 -32 -45 -20 -3 5 -3 15 0 20 8 13 45 13 45 0z"/>
<path d="M1280 4715 c0 -65 17 -74 22 -12 2 34 7 42 23 42 16 0 21 -8 23 -42
4 -56 22 -55 22 1 0 53 -21 77 -51 58 -11 -7 -19 -8 -19 -2 0 5 -4 10 -10 10
-5 0 -10 -25 -10 -55z"/>
<path d="M1412 4758 c-20 -20 -13 -39 18 -49 40 -14 39 -33 -1 -25 -22 4 -29
2 -26 -7 2 -6 19 -12 38 -12 29 0 34 3 34 25 0 17 -7 26 -24 30 -14 3 -27 12
-29 19 -4 11 3 13 27 8 32 -7 43 6 15 17 -24 9 -39 7 -52 -6z"/>
<path d="M1596 4754 c-43 -42 2 -110 58 -88 27 10 18 22 -15 20 -18 0 -34 5
-36 12 -3 8 8 12 36 12 45 0 48 5 25 38 -18 26 -46 28 -68 6z m54 -19 c0 -9
-9 -15 -25 -15 -24 0 -32 10 -18 23 12 13 43 7 43 -8z"/>
<path d="M1700 4713 c0 -29 5 -53 10 -53 6 0 10 16 10 35 0 24 6 39 20 47 28
18 25 25 -10 25 -30 0 -30 -1 -30 -54z"/>
<path d="M1940 4734 c0 -55 15 -74 55 -71 l35 2 0 53 c0 28 -4 52 -10 52 -5 0
-10 -20 -10 -45 0 -37 -3 -45 -19 -45 -21 0 -31 19 -31 61 0 16 -4 29 -10 29
-5 0 -10 -16 -10 -36z"/>
<path d="M2070 4714 c0 -30 5 -54 10 -54 6 0 10 18 10 40 0 28 5 43 16 47 21
8 34 -13 34 -54 0 -18 5 -33 10 -33 13 0 13 70 0 90 -5 8 -25 15 -45 16 l-35
1 0 -53z"/>
<path d="M2321 4757 c-17 -21 -4 -44 30 -51 19 -3 28 -10 23 -17 -4 -6 -19 -9
-36 -5 -26 5 -29 4 -18 -9 16 -19 54 -19 70 0 16 19 0 40 -36 49 -14 4 -22 11
-18 17 3 6 17 8 31 4 18 -4 24 -2 21 7 -6 18 -52 22 -67 5z"/>
<path d="M5030 4751 c0 -11 -6 -22 -12 -25 -10 -5 -10 -7 0 -12 7 -3 12 -25
12 -55 0 -28 5 -59 10 -70 13 -23 60 -26 60 -4 0 8 -7 15 -15 15 -12 0 -15 13
-15 55 0 42 3 55 15 55 8 0 15 5 15 10 0 6 -7 10 -15 10 -8 0 -15 9 -15 20 0
13 -7 20 -20 20 -13 0 -20 -7 -20 -19z"/>
<path d="M5220 4750 c0 -11 -7 -20 -15 -20 -8 0 -15 -4 -15 -9 0 -5 7 -11 15
-15 11 -4 15 -21 15 -59 0 -58 12 -77 47 -77 16 0 21 4 17 15 -4 8 -12 15 -20
15 -20 0 -20 99 1 106 8 4 15 10 15 15 0 5 -7 9 -15 9 -8 0 -15 9 -15 20 0 11
-7 20 -15 20 -8 0 -15 -9 -15 -20z"/>
<path d="M6310 4750 c0 -11 -7 -20 -15 -20 -8 0 -15 -4 -15 -9 0 -5 7 -11 15
-15 11 -4 15 -21 15 -59 0 -58 12 -77 47 -77 16 0 21 4 17 15 -4 8 -12 15 -20
15 -20 0 -20 99 1 106 8 4 15 10 15 15 0 5 -7 9 -15 9 -8 0 -15 9 -15 20 0 11
-7 20 -15 20 -8 0 -15 -9 -15 -20z"/>
<path d="M13523 4678 c13 -36 28 -63 36 -63 15 0 54 101 47 120 -4 12 -36 -57
-36 -80 0 -31 -17 -14 -31 32 -8 25 -20 48 -27 51 -8 2 -4 -18 11 -60z"/>
<path d="M13640 4729 c0 -5 5 -7 10 -4 6 3 10 8 10 11 0 2 -4 4 -10 4 -5 0
-10 -5 -10 -11z"/>
<path d="M14077 4733 c-11 -10 -8 -123 3 -123 6 0 10 28 10 65 0 65 -1 71 -13
58z"/>
<path d="M14120 4675 c0 -37 4 -65 10 -65 6 0 10 28 10 65 0 37 -4 65 -10 65
-6 0 -10 -28 -10 -65z"/>
<path d="M4330 4710 c-29 -29 -27 -90 3 -118 27 -25 74 -29 103 -8 26 20 9 32
-26 19 -22 -8 -33 -8 -49 4 -34 23 -25 32 37 35 54 3 57 4 54 27 -6 58 -80 83
-122 41z m80 -15 c18 -21 9 -27 -36 -23 -36 3 -37 4 -20 21 21 21 40 22 56 2z"/>
<path d="M4506 4708 c-23 -32 -20 -94 4 -118 27 -27 74 -26 102 2 15 15 18 23
9 26 -7 2 -18 -1 -24 -7 -15 -15 -50 -14 -65 1 -17 17 -15 64 4 82 19 20 24
20 52 0 30 -20 49 -8 26 17 -25 28 -88 26 -108 -3z"/>
<path d="M4694 4722 c-37 -24 -43 -87 -13 -126 23 -30 72 -35 105 -12 27 20
11 30 -26 18 -27 -10 -34 -8 -53 11 l-22 22 63 3 c66 3 74 11 51 55 -16 29
-28 37 -64 37 -16 0 -35 -4 -41 -8z m64 -24 c21 -21 13 -28 -30 -28 -40 0 -41
0 -23 20 21 23 36 25 53 8z"/>
<path d="M4850 4650 c0 -64 3 -80 15 -80 12 0 15 13 15 60 0 65 17 88 52 69
14 -8 18 -22 18 -69 0 -47 3 -60 15 -60 12 0 15 14 15 68 0 40 -5 73 -12 80
-15 15 -61 15 -76 0 -9 -9 -12 -9 -12 0 0 7 -7 12 -15 12 -12 0 -15 -16 -15
-80z"/>
<path d="M5320 4650 c0 -63 3 -80 15 -80 10 0 15 16 17 63 3 56 5 62 26 65 12
2 22 10 22 18 0 17 -22 18 -38 2 -9 -9 -12 -9 -12 0 0 7 -7 12 -15 12 -12 0
-15 -16 -15 -80z"/>
<path d="M5440 4715 c-19 -22 -5 -30 29 -15 16 6 35 9 40 5 23 -14 9 -33 -33
-44 -45 -11 -61 -30 -51 -62 8 -25 52 -35 79 -19 14 9 21 10 24 1 2 -6 10 -11
18 -11 21 0 20 123 -2 144 -20 21 -88 21 -104 1z m90 -73 c0 -15 -31 -52 -44
-52 -19 0 -36 23 -28 37 6 9 16 13 65 22 4 0 7 -2 7 -7z"/>
<path d="M5600 4650 c0 -73 2 -80 20 -80 18 0 20 7 20 60 0 48 4 61 19 70 32
16 51 -12 51 -76 0 -41 4 -54 15 -54 12 0 15 13 15 61 0 33 -5 69 -10 80 -12
22 -59 26 -79 7 -11 -10 -14 -10 -18 0 -3 6 -11 12 -19 12 -11 0 -14 -18 -14
-80z"/>
<path d="M5800 4716 c-23 -29 -8 -60 38 -74 23 -8 42 -20 42 -27 0 -20 -31
-27 -54 -12 -31 20 -52 10 -30 -14 36 -39 114 -18 114 31 0 27 -4 31 -45 42
-45 12 -59 33 -29 45 8 3 26 0 40 -7 28 -16 42 -7 24 15 -16 19 -84 20 -100 1z"/>
<path d="M5964 4716 c-27 -20 -10 -31 26 -16 24 10 33 10 45 0 21 -17 12 -26
-39 -39 -24 -6 -47 -18 -50 -27 -17 -44 31 -78 80 -55 15 6 24 7 24 1 0 -6 7
-10 15 -10 22 0 21 122 -1 144 -19 20 -74 21 -100 2z m86 -80 c0 -21 -30 -48
-49 -44 -26 5 -19 41 9 49 38 11 40 10 40 -5z"/>
<path d="M6140 4710 c-29 -29 -27 -90 3 -118 29 -28 78 -29 102 -2 22 24 12
39 -15 22 -50 -31 -96 10 -72 63 15 33 38 41 61 21 33 -30 57 -14 25 18 -22
23 -80 20 -104 -4z"/>
<path d="M6410 4650 c0 -64 3 -80 15 -80 12 0 15 16 15 80 0 64 -3 80 -15 80
-12 0 -15 -16 -15 -80z"/>
<path d="M6496 4708 c-23 -32 -20 -94 4 -118 25 -25 71 -26 101 -1 30 24 33
89 5 120 -27 30 -89 29 -110 -1z m78 -11 c13 -9 17 -23 14 -52 -2 -33 -7 -41
-26 -43 -13 -2 -30 2 -38 8 -19 16 -18 65 2 84 19 19 25 20 48 3z"/>
<path d="M6670 4650 c0 -64 3 -80 15 -80 12 0 15 13 15 60 0 65 17 88 52 69
14 -8 18 -22 18 -69 0 -47 3 -60 15 -60 12 0 15 14 15 68 0 40 -5 73 -12 80
-15 15 -61 15 -76 0 -9 -9 -12 -9 -12 0 0 7 -7 12 -15 12 -12 0 -15 -16 -15
-80z"/>
<path d="M6860 4716 c-23 -29 -8 -60 38 -74 23 -8 42 -20 42 -28 0 -8 -2 -14
-4 -14 -2 0 -11 -3 -19 -6 -8 -3 -22 2 -31 12 -23 22 -46 3 -26 -21 18 -22 83
-20 104 4 27 30 16 54 -34 72 -24 9 -46 21 -48 28 -6 18 27 25 54 11 28 -16
42 -7 24 15 -16 19 -84 20 -100 1z"/>
<path d="M13643 4655 c0 -27 2 -38 4 -22 2 15 2 37 0 50 -2 12 -4 0 -4 -28z"/>
<path d="M13684 4676 c-12 -49 18 -78 59 -58 21 11 20 11 -7 9 -16 -1 -31 4
-33 11 -3 8 6 12 27 12 27 0 31 3 28 23 -2 17 -11 23 -35 25 -28 3 -33 -1 -39
-22z m56 -1 c0 -8 -9 -15 -20 -15 -11 0 -20 7 -20 15 0 8 9 15 20 15 11 0 20
-7 20 -15z"/>
<path d="M13784 4683 c3 -10 8 -30 12 -45 8 -37 21 -35 37 5 l14 32 7 -33 c4
-18 13 -31 19 -29 14 4 39 87 27 87 -5 0 -13 -15 -18 -32 -9 -32 -11 -31 -26
15 -9 27 -23 20 -30 -15 -5 -26 -9 -30 -16 -18 -5 8 -10 23 -10 33 0 9 -5 17
-11 17 -6 0 -8 -8 -5 -17z"/>
<path d="M13975 4690 c-4 -6 6 -7 25 -4 40 8 39 -11 -1 -25 -45 -15 -36 -46
14 -48 34 -1 37 1 37 27 0 46 -10 60 -40 60 -16 0 -32 -4 -35 -10z m55 -49 c0
-5 -7 -12 -16 -15 -22 -9 -24 -8 -24 9 0 8 9 15 20 15 11 0 20 -4 20 -9z"/>
<path d="M532 4028 c-7 -7 -12 -44 -12 -94 0 -112 3 -114 135 -114 118 0 130
7 122 78 l-4 37 -1 -41 c-1 -22 -7 -45 -14 -52 -16 -16 -200 -16 -216 0 -7 7
-12 38 -12 70 l0 57 73 4 72 3 -72 2 c-54 1 -73 6 -73 16 0 24 24 35 85 39
l60 3 -65 2 c-41 1 -71 -3 -78 -10z"/>
<path d="M730 4025 c0 -8 -7 -15 -17 -15 -9 0 -13 -3 -9 -7 4 -5 13 -8 19 -8
7 0 12 -5 12 -12 0 -6 3 -15 8 -19 4 -4 7 2 7 14 0 11 8 23 18 25 16 4 16 5 0
6 -10 0 -18 8 -18 16 0 8 -4 15 -10 15 -5 0 -10 -7 -10 -15z"/>
<path d="M1000 3997 c-79 -40 -25 -165 56 -128 13 6 24 18 24 27 0 16 -1 16
-18 1 -33 -30 -66 -19 -77 25 -5 19 -1 32 14 47 25 25 35 26 56 5 9 -9 19 -13
23 -9 7 6 -33 45 -47 45 -3 0 -17 -6 -31 -13z"/>
<path d="M1840 3932 l0 -69 32 -1 c42 -1 58 13 58 53 0 38 -21 59 -50 50 -16
-5 -20 -2 -20 14 0 12 -4 21 -10 21 -6 0 -10 -29 -10 -68z m65 -17 c0 -23 -4
-30 -20 -30 -21 0 -31 25 -21 51 11 28 41 12 41 -21z"/>
<path d="M2200 3930 c0 -40 4 -70 10 -70 6 0 10 9 10 20 0 11 4 20 10 20 5 0
15 -9 22 -20 7 -11 19 -20 26 -20 9 0 7 9 -8 31 l-22 30 23 25 c19 20 20 24 6
24 -9 0 -22 -9 -29 -20 -19 -29 -28 -24 -28 15 0 19 -4 35 -10 35 -6 0 -10
-30 -10 -70z"/>
<path d="M1710 3973 c-10 -12 -11 -18 -2 -21 7 -2 12 -21 12 -43 0 -38 21 -62
38 -44 4 4 1 10 -5 12 -17 6 -17 70 -1 75 9 3 8 9 -4 21 -20 20 -19 20 -38 0z"/>
<path d="M1126 3954 c-32 -32 -10 -94 34 -94 45 0 66 62 32 93 -23 21 -46 22
-66 1z m59 -23 c9 -29 -5 -52 -29 -49 -37 5 -34 68 3 68 11 0 22 -8 26 -19z"/>
<path d="M1240 3914 c0 -30 5 -54 10 -54 6 0 10 18 10 40 0 28 5 43 16 47 21
8 34 -13 34 -54 0 -18 5 -33 10 -33 13 0 13 70 0 90 -5 8 -25 15 -45 16 l-35
1 0 -53z"/>
<path d="M1360 3915 c0 -65 17 -74 22 -12 2 34 7 42 23 42 16 0 21 -8 23 -42
4 -56 22 -55 22 1 0 53 -21 77 -51 58 -11 -7 -19 -8 -19 -2 0 5 -4 10 -10 10
-5 0 -10 -25 -10 -55z"/>
<path d="M1492 3958 c-7 -7 -12 -26 -12 -43 0 -17 5 -36 12 -43 16 -16 53 -15
68 3 10 12 6 13 -24 8 -29 -4 -36 -2 -36 11 0 12 9 16 35 16 27 0 35 4 35 18
0 24 -19 42 -45 42 -12 0 -26 -5 -33 -12z m56 -25 c2 -8 -6 -13 -22 -13 -25 0
-33 10 -19 24 10 10 36 3 41 -11z"/>
<path d="M1610 3955 c-29 -35 -7 -95 35 -95 12 0 28 7 36 16 11 14 9 15 -24 9
-36 -7 -37 -7 -37 24 0 34 22 50 44 32 17 -14 29 -2 15 16 -15 18 -54 17 -69
-2z"/>
<path d="M1971 3956 c-10 -12 -7 -14 16 -13 38 3 44 -17 7 -23 -23 -4 -29 -10
-29 -30 0 -23 4 -25 43 -26 l42 -1 0 42 c0 22 -5 46 -12 53 -16 16 -53 15 -67
-2z m59 -56 c0 -15 -38 -32 -45 -20 -3 5 -3 15 0 20 8 13 45 13 45 0z"/>
<path d="M2080 3914 c0 -30 5 -54 10 -54 6 0 10 18 10 40 0 28 5 43 16 47 21
8 34 -13 34 -54 0 -18 5 -33 10 -33 13 0 13 70 0 90 -5 8 -25 15 -45 16 l-35
1 0 -53z"/>
<path d="M7761 3873 c1 -45 3 -59 8 -43 5 18 16 26 36 30 58 10 39 80 -22 80
-22 0 -23 -3 -22 -67z m67 25 c-2 -17 -11 -24 -30 -26 -24 -3 -28 0 -28 22 0
22 4 26 31 26 26 0 30 -3 27 -22z"/>
<path d="M8244 3930 c-45 -18 -37 -104 11 -116 25 -6 55 9 55 28 0 5 -7 2 -16
-6 -19 -19 -26 -20 -46 -3 -21 17 -27 38 -17 65 9 24 47 30 67 10 9 -9 12 -9
12 0 0 6 -9 16 -19 22 -22 11 -19 11 -47 0z"/>
<path d="M8353 3875 c0 -38 2 -53 4 -32 2 20 2 52 0 70 -2 17 -4 1 -4 -38z"/>
<path d="M9717 3933 c-4 -3 -7 -34 -6 -67 1 -42 3 -53 8 -36 5 18 16 26 36 30
24 4 31 11 33 33 3 21 -2 29 -23 37 -31 12 -39 12 -48 3z m61 -35 c-2 -17 -11
-24 -30 -26 -24 -3 -28 0 -28 22 0 22 4 26 31 26 26 0 30 -3 27 -22z"/>
<path d="M10186 3928 c-29 -16 -19 -45 19 -58 19 -6 35 -18 35 -25 0 -18 -39
-30 -53 -16 -17 17 -31 13 -17 -4 24 -28 80 -13 80 23 0 7 -16 20 -35 28 -45
18 -48 48 -5 42 17 -3 30 -1 30 3 0 12 -36 17 -54 7z"/>
<path d="M7883 3870 c0 -36 2 -50 4 -32 2 17 2 47 0 65 -2 17 -4 3 -4 -33z"/>
<path d="M8129 3913 c-1 -10 -2 -30 -3 -45 -2 -34 -19 -53 -40 -45 -25 10 -20
56 7 67 22 10 22 10 -3 7 -19 -1 -26 -8 -28 -30 -4 -37 13 -57 49 -54 28 2 29
3 29 60 0 31 -2 57 -5 57 -3 0 -6 -8 -6 -17z"/>
<path d="M8663 3870 c0 -36 2 -55 4 -42 5 27 19 28 33 2 6 -11 15 -20 21 -20
6 0 1 12 -10 27 -20 24 -20 27 -5 45 11 11 13 18 5 18 -6 0 -14 -7 -17 -15
-10 -25 -23 -17 -27 18 -2 17 -4 3 -4 -33z"/>
<path d="M9823 3870 c0 -36 2 -50 4 -32 2 17 2 47 0 65 -2 17 -4 3 -4 -33z"/>
<path d="M7926 3891 c-3 -4 5 -6 18 -4 13 3 27 0 30 -6 4 -6 2 -11 -5 -11 -8
0 -9 -3 0 -14 15 -18 -12 -41 -36 -31 -17 6 -17 7 1 21 16 11 17 14 4 14 -20
0 -30 -26 -15 -38 7 -6 24 -10 39 -9 23 2 28 7 28 29 0 14 -3 33 -6 42 -6 17
-49 22 -58 7z"/>
<path d="M8023 3855 c0 -27 2 -38 4 -22 2 15 2 37 0 50 -2 12 -4 0 -4 -28z"/>
<path d="M8385 3891 c13 -5 22 -21 26 -47 l7 -39 -2 45 c-1 40 -4 45 -26 47
-22 2 -23 2 -5 -6z"/>
<path d="M8457 3893 c-11 -11 -8 -58 5 -71 14 -14 44 -16 53 -3 3 6 -7 9 -21
8 -15 -1 -29 4 -31 11 -3 8 5 12 25 12 36 0 44 8 31 31 -9 18 -49 26 -62 12z
m53 -18 c0 -9 -9 -15 -25 -15 -24 0 -32 10 -18 23 12 13 43 7 43 -8z"/>
<path d="M8562 3888 c-7 -7 -12 -21 -12 -33 0 -42 45 -60 71 -28 13 15 12 15
-8 3 -18 -12 -24 -12 -38 0 -26 21 -15 55 18 55 15 -1 27 3 27 7 0 12 -45 9
-58 -4z"/>
<path d="M8753 3855 c0 -27 2 -38 4 -22 2 15 2 37 0 50 -2 12 -4 0 -4 -28z"/>
<path d="M8803 3855 c0 -27 2 -38 4 -22 2 15 2 37 0 50 -2 12 -4 0 -4 -28z"/>
<path d="M8835 3891 c13 -5 22 -21 26 -47 l7 -39 -2 45 c-1 40 -4 45 -26 47
-22 2 -23 2 -5 -6z"/>
<path d="M8907 3893 c-4 -3 -7 -19 -7 -34 0 -31 23 -49 53 -41 14 3 18 1 15
-9 -3 -8 -18 -17 -34 -20 -16 -4 -22 -8 -14 -9 25 -4 45 1 52 13 12 19 10 109
-2 102 -6 -4 -8 -14 -6 -23 8 -24 -8 -45 -30 -40 -29 5 -30 46 -2 57 22 9 22
10 2 10 -11 1 -24 -2 -27 -6z"/>
<path d="M9870 3892 c0 -5 11 -7 25 -5 23 5 24 3 21 -31 -1 -21 2 -39 6 -42 5
-3 8 14 6 38 -3 39 -6 43 -30 46 -16 2 -28 -1 -28 -6z"/>
<path d="M9973 3855 c0 -27 2 -38 4 -22 2 15 2 37 0 50 -2 12 -4 0 -4 -28z"/>
<path d="M10017 3893 c-21 -20 1 -83 28 -83 5 0 2 5 -7 11 -27 15 -24 66 5 72
20 4 20 4 1 6 -11 0 -24 -2 -27 -6z"/>
<path d="M10071 3884 c0 -11 3 -14 6 -6 3 7 2 16 -1 19 -3 4 -6 -2 -5 -13z"/>
<path d="M10287 3893 c-3 -5 8 -8 24 -8 16 0 29 3 29 8 0 4 -11 7 -24 7 -14 0
-27 -3 -29 -7z"/>
<path d="M10435 3889 c-4 -6 -5 -12 -2 -15 2 -3 7 2 10 11 7 17 1 20 -8 4z"/>
<path d="M10521 3851 l2 -46 6 40 c5 31 11 41 28 43 19 3 22 -2 26 -40 l4 -43
-1 45 c-1 44 -2 45 -33 46 -33 1 -33 1 -32 -45z"/>
<path d="M10626 3884 c-16 -42 12 -81 45 -64 16 9 19 7 19 -9 0 -14 -8 -21
-27 -24 -26 -4 -26 -4 2 -3 29 1 30 2 33 56 l3 56 -34 2 c-24 2 -37 -2 -41
-14z m59 -24 c0 -18 -6 -26 -23 -28 -24 -4 -38 18 -28 44 3 9 15 14 28 12 17
-2 23 -10 23 -28z"/>
<path d="M578 3873 c7 -3 16 -2 19 1 4 3 -2 6 -13 5 -11 0 -14 -3 -6 -6z"/>
<path d="M643 3873 c9 -2 25 -2 35 0 9 3 1 5 -18 5 -19 0 -27 -2 -17 -5z"/>
<path d="M10381 3879 c-2 -14 22 -69 30 -69 5 0 9 5 9 10 0 6 -4 10 -8 10 -5
0 -13 12 -19 28 -6 15 -11 24 -12 21z"/>
<path d="M9864 3845 c-8 -19 3 -35 24 -35 16 1 16 1 0 11 -10 5 -18 14 -18 19
0 5 8 11 18 13 16 4 16 5 -1 6 -10 0 -20 -6 -23 -14z"/>
<path d="M10280 3850 c0 -5 7 -7 15 -4 8 4 15 8 15 10 0 2 -7 4 -15 4 -8 0
-15 -4 -15 -10z"/>
<path d="M10066 3835 c-3 -8 -1 -15 4 -15 6 0 10 7 10 15 0 8 -2 15 -4 15 -2
0 -6 -7 -10 -15z"/>
<path d="M10288 3818 c5 -5 16 -8 23 -6 8 3 3 7 -10 11 -17 4 -21 3 -13 -5z"/>
<path d="M7550 3640 c0 -7 280 -10 820 -10 540 0 820 3 820 10 0 7 -280 10
-820 10 -540 0 -820 -3 -820 -10z"/>
<path d="M5300 2920 c0 -5 5 -10 10 -10 6 0 10 5 10 10 0 6 -4 10 -10 10 -5 0
-10 -4 -10 -10z"/>
<path d="M5570 2923 c-42 -15 -56 -96 -22 -126 24 -22 65 -21 85 1 21 23 21
32 2 32 -8 0 -15 -4 -15 -9 0 -15 -31 -21 -51 -10 -15 7 -19 19 -17 41 4 41
29 56 62 38 30 -16 41 -10 23 12 -14 19 -46 28 -67 21z"/>
<path d="M6155 2920 c-3 -5 1 -10 9 -10 9 0 16 5 16 10 0 6 -4 10 -9 10 -6 0
-13 -4 -16 -10z"/>
<path d="M5000 2851 c0 -39 4 -71 9 -71 5 0 11 10 13 23 2 15 11 23 30 25 35
4 50 24 46 59 -3 26 -7 28 -50 31 l-48 3 0 -70z m75 24 c0 -31 -49 -28 -53 3
-3 20 0 23 25 20 20 -2 28 -8 28 -23z"/>
<path d="M5130 2850 c0 -40 4 -70 10 -70 6 0 10 30 10 70 0 40 -4 70 -10 70
-6 0 -10 -30 -10 -70z"/>
<path d="M5429 2895 c-1 -14 -2 -40 -3 -57 -2 -39 3 -58 15 -58 5 0 9 32 9 70
0 40 -4 70 -10 70 -5 0 -11 -11 -11 -25z"/>
<path d="M5680 2850 c0 -40 4 -70 10 -70 6 0 10 18 10 40 0 28 5 43 16 47 21
8 34 -13 34 -54 0 -18 5 -33 10 -33 6 0 10 20 10 44 0 53 -21 77 -51 58 -17
-11 -19 -9 -19 13 0 14 -4 25 -10 25 -6 0 -10 -30 -10 -70z"/>
<path d="M6040 2850 c0 -40 4 -70 10 -70 6 0 10 9 10 20 0 11 4 20 10 20 5 0
15 -9 22 -20 7 -11 19 -20 27 -20 11 0 10 5 -3 25 -20 31 -20 44 1 67 15 16
15 18 0 18 -9 0 -21 -9 -27 -20 -16 -31 -30 -24 -30 15 0 19 -4 35 -10 35 -6
0 -10 -30 -10 -70z"/>
<path d="M13453 2855 c0 -33 2 -45 4 -27 2 18 2 45 0 60 -2 15 -4 0 -4 -33z"/>
<path d="M13712 2855 c-1 -49 1 -56 9 -35 l10 25 19 -25 c11 -14 20 -20 20
-14 0 6 -7 17 -15 24 -14 11 -14 15 2 34 18 21 18 21 -3 4 -28 -24 -32 -23
-37 15 -2 17 -4 5 -5 -28z"/>
<path d="M5194 2875 c-18 -14 -17 -15 13 -12 41 3 47 -16 7 -23 -23 -4 -29
-10 -29 -30 0 -23 4 -25 43 -26 l42 -1 0 42 c0 61 -33 83 -76 50z m54 -57 c-5
-15 -48 -24 -48 -10 0 14 12 22 33 22 10 0 17 -5 15 -12z"/>
<path d="M5300 2835 c0 -30 5 -55 10 -55 6 0 10 25 10 55 0 30 -4 55 -10 55
-5 0 -10 -25 -10 -55z"/>
<path d="M5366 2874 c-18 -18 -20 -47 -6 -75 11 -20 45 -26 55 -9 3 6 -1 10
-9 10 -8 0 -19 8 -25 17 -12 21 3 53 25 53 8 0 12 5 9 10 -9 15 -31 12 -49 -6z"/>
<path d="M5818 2879 c-21 -12 -24 -69 -6 -87 16 -16 53 -15 67 2 10 12 6 14
-20 13 -18 -1 -34 4 -36 11 -3 8 7 12 31 12 28 0 36 4 36 18 0 37 -36 52 -72
31z m50 -26 c2 -8 -6 -13 -22 -13 -25 0 -33 10 -19 24 10 10 36 3 41 -11z"/>
<path d="M5938 2879 c-21 -12 -24 -69 -6 -87 16 -16 53 -15 67 1 14 18 2 30
-15 16 -21 -17 -44 -3 -44 26 0 30 24 43 45 25 20 -17 32 -5 15 15 -14 17 -37
19 -62 4z"/>
<path d="M6150 2835 c0 -42 3 -55 15 -55 12 0 15 13 15 55 0 42 -3 55 -15 55
-12 0 -15 -13 -15 -55z"/>
<path d="M6210 2835 c0 -65 17 -74 22 -12 2 34 7 42 23 42 16 0 21 -8 23 -42
4 -56 22 -55 22 1 0 53 -21 77 -51 58 -11 -7 -19 -8 -19 -2 0 5 -4 10 -10 10
-5 0 -10 -25 -10 -55z"/>
<path d="M6338 2865 c-21 -47 15 -102 49 -74 17 15 28 5 19 -17 -5 -12 -14
-15 -37 -10 -22 4 -29 2 -27 -7 6 -17 56 -21 74 -6 9 8 14 32 14 73 l0 62 -40
1 c-34 2 -43 -2 -52 -22z m66 -18 c16 -25 -16 -56 -38 -37 -19 15 -20 32 -4
48 15 15 28 11 42 -11z"/>
<path d="M13364 2866 c-16 -43 21 -85 49 -57 9 9 5 11 -13 9 -21 -3 -26 2 -28
26 -3 26 -1 28 22 24 14 -3 23 -1 20 3 -8 14 -44 10 -50 -5z"/>
<path d="M13482 2868 c9 -7 19 -26 21 -43 3 -21 4 -18 3 10 -1 31 -5 41 -21
43 -18 4 -19 3 -3 -10z"/>
<path d="M13546 2872 c-3 -6 2 -8 13 -5 10 3 22 0 25 -6 5 -7 -4 -11 -23 -11
-34 0 -36 -2 -21 -31 11 -19 44 -26 54 -10 3 4 -6 6 -19 3 -18 -3 -25 0 -25
12 0 11 9 16 26 16 19 0 25 5 22 18 -4 19 -42 29 -52 14z"/>
<path d="M13630 2865 c-15 -18 -10 -45 12 -59 12 -7 21 -7 28 0 8 8 4 10 -12
10 -18 -1 -23 4 -23 24 0 19 5 25 23 24 12 0 22 3 22 8 0 14 -37 9 -50 -7z"/>
<path d="M13803 2840 c0 -25 2 -35 4 -22 2 12 2 32 0 45 -2 12 -4 2 -4 -23z"/>
<path d="M13830 2841 c0 -23 2 -41 4 -41 8 0 12 71 4 76 -4 3 -8 -13 -8 -35z"/>
<path d="M13873 2869 c10 -6 17 -23 18 -42 1 -18 3 -24 6 -14 8 30 -6 67 -25
67 -16 -1 -16 -1 1 -11z"/>
<path d="M13924 2855 c-6 -26 9 -55 29 -55 6 0 3 6 -7 13 -23 17 -17 52 9 52
17 0 20 -7 20 -40 0 -35 -3 -40 -22 -39 -13 0 -23 -3 -23 -8 0 -5 12 -8 28 -6
25 3 27 7 30 53 3 50 2 51 -27 53 -25 2 -32 -2 -37 -23z"/>
<path d="M4441 2861 c-18 -11 -16 -161 2 -173 14 -9 158 -11 181 -2 11 4 16
18 15 48 l-2 41 -6 -40 -6 -40 -90 0 -90 0 -3 57 -3 57 58 4 58 3 -58 2 c-50
2 -58 5 -55 20 2 13 17 18 58 23 l55 6 -50 1 c-27 1 -56 -2 -64 -7z"/>
<path d="M4610 2850 c0 -5 -8 -10 -17 -11 -14 0 -15 -2 -3 -6 8 -3 17 -9 20
-13 3 -4 10 -2 16 4 8 9 7 15 -3 24 -8 8 -13 9 -13 2z"/>
<path d="M4478 2723 c7 -3 16 -2 19 1 4 3 -2 6 -13 5 -11 0 -14 -3 -6 -6z"/>
<path d="M4528 2723 c6 -2 18 -2 25 0 6 3 1 5 -13 5 -14 0 -19 -2 -12 -5z"/>
<path d="M5019 2561 c-20 -16 -22 -23 -13 -38 6 -10 25 -22 43 -27 42 -12 44
-46 2 -46 -16 0 -31 6 -34 13 -2 6 -8 9 -12 5 -13 -13 16 -38 44 -38 62 0 70
54 11 78 -22 9 -40 23 -40 30 0 19 30 27 51 14 30 -19 36 -13 10 8 -29 25 -33
25 -62 1z"/>
<path d="M5322 2564 c-17 -12 -22 -25 -22 -63 0 -31 5 -53 15 -61 22 -18 64
-4 71 24 18 72 -20 131 -64 100z m46 -16 c13 -13 16 -56 6 -82 -3 -9 -16 -16
-29 -16 -25 0 -35 17 -35 59 0 28 16 51 35 51 6 0 16 -5 23 -12z"/>
<path d="M5502 2564 c-17 -12 -22 -25 -22 -63 0 -31 5 -53 15 -61 22 -18 64
-4 71 24 18 72 -20 131 -64 100z m46 -16 c13 -13 16 -56 6 -82 -3 -9 -16 -16
-29 -16 -25 0 -35 17 -35 59 0 28 16 51 35 51 6 0 16 -5 23 -12z"/>
<path d="M5638 2573 c-38 -9 -47 -105 -12 -133 21 -18 63 -4 70 24 15 63 -14
119 -58 109z m43 -34 c6 -12 8 -36 4 -56 -5 -30 -9 -34 -33 -31 -23 3 -27 8
-30 41 -5 60 35 91 59 46z"/>
<path d="M5143 2563 c-7 -2 -13 -9 -13 -14 0 -4 7 -6 15 -3 12 5 15 -5 15 -55
0 -34 4 -61 10 -61 6 0 10 30 10 70 0 70 -4 77 -37 63z"/>
<path d="M5221 2556 c-10 -12 -9 -13 8 -9 18 5 20 -1 24 -58 l3 -64 2 73 c2
55 -1 72 -12 72 -7 0 -19 -6 -25 -14z"/>
<path d="M5430 2439 c0 -5 5 -7 10 -4 6 3 10 8 10 11 0 2 -4 4 -10 4 -5 0 -10
-5 -10 -11z"/>
<path d="M4210 1700 c0 -5 9 -10 20 -10 16 0 20 -8 23 -57 l3 -58 2 58 c2 50
5 57 22 57 11 0 20 5 20 10 0 6 -20 10 -45 10 -25 0 -45 -4 -45 -10z"/>
<path d="M4945 1700 c3 -5 8 -10 11 -10 2 0 4 5 4 10 0 6 -5 10 -11 10 -5 0
-7 -4 -4 -10z"/>
<path d="M6255 1658 c-10 -29 -20 -59 -23 -65 -2 -7 0 -13 6 -13 5 0 12 9 15
20 3 12 14 20 26 20 11 0 26 -9 33 -20 7 -11 16 -20 20 -20 10 0 -38 124 -50
128 -5 1 -18 -21 -27 -50z m35 13 c0 -5 3 -16 6 -25 4 -11 0 -16 -14 -16 -15
0 -18 5 -14 25 4 23 22 36 22 16z"/>
<path d="M7515 1696 c-25 -18 -13 -44 25 -57 16 -6 30 -17 30 -24 0 -18 -30
-27 -47 -14 -15 13 -28 6 -18 -10 10 -17 61 -13 76 5 17 20 1 46 -32 54 -13 3
-25 14 -27 24 -4 16 1 18 27 13 32 -7 43 6 15 17 -22 9 -28 8 -49 -8z"/>
<path d="M9250 1645 l0 -65 33 0 c42 0 67 26 67 68 0 36 -30 62 -72 62 -28 0
-28 -1 -28 -65z m82 19 c15 -33 1 -58 -36 -62 -25 -3 -26 -1 -26 42 0 42 2 46
25 46 18 0 29 -8 37 -26z"/>
<path d="M11737 1692 c-10 -10 -17 -35 -17 -56 0 -45 33 -67 75 -48 25 11 34
32 15 32 -5 0 -10 -4 -10 -10 0 -5 -13 -10 -30 -10 -23 0 -31 5 -36 25 -12 48
20 80 58 56 26 -16 34 -8 13 13 -22 21 -48 20 -68 -2z"/>
<path d="M11853 1645 c0 -54 1 -61 6 -30 5 31 10 40 26 40 16 0 21 -9 26 -40
l6 -40 2 48 c1 46 0 47 -28 47 -23 0 -31 5 -34 23 -2 12 -4 -9 -4 -48z"/>
<path d="M12373 1645 c0 -38 2 -53 4 -32 2 20 2 52 0 70 -2 17 -4 1 -4 -38z"/>
<path d="M12940 1690 c-25 -25 -26 -72 -2 -93 22 -20 53 -22 70 -5 20 20 13
30 -10 14 -38 -27 -75 13 -57 62 9 24 47 30 67 10 9 -9 12 -9 12 0 0 12 -31
32 -49 32 -6 0 -20 -9 -31 -20z"/>
<path d="M4882 1679 c-7 -10 -8 -19 -3 -19 6 0 11 -17 13 -37 2 -22 9 -38 18
-41 12 -4 13 -2 3 9 -15 15 -17 66 -4 71 5 2 4 11 -3 20 -11 15 -13 15 -24 -3z"/>
<path d="M6827 1688 c-2 -7 -1 -33 2 -58 5 -35 10 -45 26 -47 11 -2 14 0 8 3
-15 7 -18 74 -3 74 6 0 5 8 -2 20 -15 23 -24 25 -31 8z"/>
<path d="M7612 1679 c-7 -10 -8 -19 -3 -19 6 0 11 -17 13 -37 2 -22 9 -38 18
-41 12 -4 13 -2 3 9 -15 15 -17 66 -4 71 5 2 4 11 -3 20 -11 15 -13 15 -24 -3z"/>
<path d="M7772 1679 c-7 -10 -8 -19 -3 -19 6 0 11 -17 13 -37 2 -22 9 -38 18
-41 12 -4 13 -2 3 9 -15 15 -17 66 -4 71 5 2 4 11 -3 20 -11 15 -13 15 -24 -3z"/>
<path d="M9477 1688 c-2 -7 -1 -33 2 -58 5 -34 11 -45 26 -48 15 -2 16 -1 7 6
-8 5 -13 24 -12 43 3 52 1 69 -9 69 -5 0 -11 -6 -14 -12z"/>
<path d="M13147 1688 c-2 -7 -1 -33 2 -58 5 -35 10 -45 26 -47 11 -2 14 0 8 3
-15 7 -18 74 -3 74 6 0 5 8 -2 20 -15 23 -24 25 -31 8z"/>
<path d="M6390 1670 c-8 -5 -18 -6 -22 -4 -4 3 -7 -16 -7 -43 l2 -48 6 40 c4
27 12 41 24 43 14 3 17 -4 17 -37 0 -23 5 -41 10 -41 6 0 10 18 10 40 0 33 3
40 19 40 16 0 21 -8 24 -42 l4 -43 1 46 c2 49 -11 65 -39 49 -7 -5 -18 -5 -24
0 -6 5 -17 5 -25 0z"/>
<path d="M4321 1623 c1 -27 3 -39 6 -28 2 11 6 30 8 42 3 12 13 24 23 26 10 3
6 5 -10 6 -27 1 -28 -1 -27 -46z"/>
<path d="M4385 1660 c-4 -6 6 -7 25 -4 40 8 39 -11 -1 -25 -42 -15 -37 -46 9
-47 31 -1 32 0 32 43 0 41 -1 43 -29 43 -17 0 -33 -4 -36 -10z m55 -45 c0 -20
-28 -31 -42 -17 -10 10 8 23 40 31 1 1 2 -6 2 -14z"/>
<path d="M4491 1621 l2 -46 6 40 c7 46 37 62 45 23 13 -58 14 -60 13 -18 -2
44 -3 45 -34 46 -33 1 -33 1 -32 -45z"/>
<path d="M4590 1650 c0 -13 9 -22 25 -26 14 -3 25 -12 25 -20 0 -17 -22 -18
-39 -1 -11 10 -13 9 -9 -3 7 -22 62 -20 66 3 3 12 -6 21 -27 28 -40 14 -41 33
-1 25 19 -3 29 -2 25 4 -3 6 -19 10 -36 10 -22 0 -29 -5 -29 -20z"/>
<path d="M4685 1660 c-4 -6 6 -7 25 -4 40 8 39 -11 -1 -25 -42 -15 -37 -46 9
-47 31 -1 32 0 32 43 0 41 -1 43 -29 43 -17 0 -33 -4 -36 -10z m55 -45 c0 -20
-28 -31 -42 -17 -10 10 8 23 40 31 1 1 2 -6 2 -14z"/>
<path d="M4784 1643 c-4 -14 -2 -33 3 -42 12 -20 51 -27 66 -12 16 16 0 26
-18 11 -21 -17 -38 -1 -33 31 2 19 9 24 31 22 15 -1 25 2 22 8 -4 5 -19 9 -35
9 -24 0 -31 -5 -36 -27z"/>
<path d="M4953 1625 c0 -27 2 -38 4 -22 2 15 2 37 0 50 -2 12 -4 0 -4 -28z"/>
<path d="M4997 1663 c-12 -12 -7 -60 8 -73 33 -27 73 8 61 53 -5 21 -12 27
-35 27 -15 0 -31 -3 -34 -7z m56 -23 c3 -10 -1 -27 -8 -37 -11 -15 -15 -15
-29 -4 -16 14 -21 42 -9 54 13 14 41 6 46 -13z"/>
<path d="M5101 1621 l2 -46 6 40 c7 46 37 62 45 23 13 -58 14 -60 13 -18 -2
44 -3 45 -34 46 -33 1 -33 1 -32 -45z"/>
<path d="M6514 1644 c-8 -32 5 -58 33 -62 27 -4 45 21 41 55 -2 23 -8 29 -35
31 -28 3 -33 0 -39 -24z m63 0 c7 -18 -6 -45 -25 -52 -15 -5 -33 33 -26 52 8
21 43 21 51 0z"/>
<path d="M6624 1630 c1 -45 1 -45 39 -47 l37 -1 0 44 c0 24 -4 44 -10 44 -5 0
-10 -15 -10 -34 0 -61 -43 -54 -53 9 -3 19 -4 13 -3 -15z"/>
<path d="M6731 1621 l2 -46 6 40 c7 46 37 62 45 23 13 -58 14 -60 13 -18 -2
44 -3 45 -34 46 -33 1 -33 1 -32 -45z"/>
<path d="M7675 1660 c-4 -6 6 -7 25 -4 40 8 39 -11 -1 -25 -42 -15 -37 -46 9
-47 31 -1 32 0 32 43 0 41 -1 43 -29 43 -17 0 -33 -4 -36 -10z m55 -45 c0 -20
-28 -31 -42 -17 -10 10 8 23 40 31 1 1 2 -6 2 -14z"/>
<path d="M7830 1636 c0 -40 15 -55 52 -53 26 2 28 5 28 45 0 52 -18 56 -22 5
-2 -26 -8 -38 -18 -38 -10 0 -16 12 -18 38 -4 46 -22 49 -22 3z"/>
<path d="M7940 1650 c0 -13 9 -22 25 -26 14 -3 25 -12 25 -20 0 -17 -22 -18
-39 -1 -11 10 -13 9 -9 -3 7 -22 62 -20 66 3 3 12 -6 21 -27 28 -40 14 -41 33
-1 25 19 -3 29 -2 25 4 -3 6 -19 10 -36 10 -22 0 -29 -5 -29 -20z"/>
<path d="M9380 1660 c0 -6 10 -8 26 -4 20 5 25 3 22 -7 -3 -8 -13 -16 -24 -18
-47 -9 -37 -51 12 -49 35 1 35 2 32 42 -3 38 -5 41 -35 44 -19 2 -33 -1 -33
-8z m47 -57 c-15 -15 -37 -11 -37 7 0 10 31 19 43 12 5 -2 2 -11 -6 -19z"/>
<path d="M9534 1644 c-4 -15 -2 -34 3 -43 12 -19 51 -27 66 -12 7 7 2 10 -18
8 -15 -1 -30 4 -32 11 -3 8 6 12 27 12 27 0 31 3 28 23 -2 17 -11 23 -35 25
-28 3 -33 0 -39 -24z m61 1 c0 -5 -10 -11 -22 -13 -16 -2 -23 2 -23 13 0 11 7
15 23 13 12 -2 22 -7 22 -13z"/>
<path d="M11955 1660 c-4 -6 6 -7 25 -4 19 4 30 2 30 -5 0 -6 -14 -14 -31 -18
-23 -4 -29 -10 -27 -27 2 -16 10 -21 36 -22 31 -1 32 0 32 43 0 41 -1 43 -29
43 -17 0 -33 -4 -36 -10z m55 -45 c0 -20 -28 -31 -42 -17 -10 10 8 23 40 31 1
1 2 -6 2 -14z"/>
<path d="M12050 1626 c0 -55 17 -62 22 -9 2 27 8 39 21 41 14 3 17 -4 17 -37
0 -23 5 -41 11 -41 6 0 9 17 7 43 -3 41 -4 42 -40 45 l-38 3 0 -45z"/>
<path d="M12161 1620 l2 -45 6 40 c5 31 10 40 26 40 16 0 21 -9 26 -40 l6 -40
2 48 1 48 -35 -3 c-35 -2 -35 -2 -34 -48z"/>
<path d="M12264 1644 c-4 -15 -2 -34 3 -43 13 -20 52 -26 67 -11 8 10 5 11
-15 6 -18 -4 -31 -1 -39 9 -11 13 -7 15 24 15 33 0 37 3 34 23 -2 17 -11 23
-35 25 -28 3 -33 0 -39 -24z m56 1 c0 -8 -9 -15 -20 -15 -11 0 -20 7 -20 15 0
8 9 15 20 15 11 0 20 -7 20 -15z"/>
<path d="M13055 1660 c-4 -6 6 -7 25 -4 19 4 30 2 30 -5 0 -6 -14 -14 -31 -18
-23 -4 -29 -10 -27 -27 2 -16 10 -21 36 -22 31 -1 32 0 32 43 0 41 -1 43 -29
43 -17 0 -33 -4 -36 -10z m55 -45 c0 -20 -28 -31 -42 -17 -10 10 8 23 40 31 1
1 2 -6 2 -14z"/>
<path d="M13217 1663 c-4 -3 -7 -21 -7 -39 0 -28 5 -35 26 -40 15 -4 30 -2 37
6 10 10 8 12 -5 7 -21 -7 -48 1 -48 14 0 5 16 9 35 9 36 0 46 15 23 38 -13 13
-50 16 -61 5z m53 -18 c0 -16 -35 -21 -44 -6 -8 12 4 21 26 21 10 0 18 -7 18
-15z"/>
<path d="M13317 1663 c-12 -12 -7 -60 8 -73 8 -6 23 -9 36 -5 16 5 20 3 17 -6
-3 -8 -17 -14 -31 -14 -15 1 -27 -2 -27 -6 0 -13 32 -19 51 -9 15 9 19 22 19
65 l0 55 -33 0 c-19 0 -37 -3 -40 -7z m58 -23 c8 -25 -1 -40 -25 -40 -20 0
-32 22 -24 45 9 22 42 18 49 -5z"/>
<path d="M13427 1663 c-12 -12 -7 -60 8 -73 33 -27 73 8 61 53 -5 21 -12 27
-35 27 -15 0 -31 -3 -34 -7z m56 -23 c3 -10 -1 -27 -8 -37 -11 -15 -15 -15
-29 -4 -16 14 -21 42 -9 54 13 14 41 6 46 -13z"/>
<path d="M13532 1623 c1 -40 2 -42 5 -13 2 19 11 41 20 48 15 11 14 12 -5 12
-20 0 -22 -5 -20 -47z"/>
<path d="M13593 1658 c31 -85 32 -89 17 -98 -13 -8 -13 -10 1 -10 11 0 24 20
38 56 24 64 24 64 12 64 -5 0 -12 -13 -16 -30 -4 -16 -10 -30 -15 -30 -5 0
-11 14 -15 30 -4 17 -11 30 -17 30 -6 0 -8 -6 -5 -12z"/>
<path d="M13207 1133 c94 -2 252 -2 350 0 98 1 21 2 -172 2 -192 1 -273 -1
-178 -2z"/>
<path d="M12954 1088 l-19 -23 23 19 c21 18 27 26 19 26 -2 0 -12 -10 -23 -22z"/>
<path d="M13805 1090 c10 -11 20 -20 23 -20 3 0 -3 9 -13 20 -10 11 -20 20
-23 20 -3 0 3 -9 13 -20z"/>
<path d="M923 975 c0 -38 2 -55 4 -37 4 29 7 32 39 32 31 0 34 -2 34 -30 0
-16 5 -30 10 -30 6 0 10 26 10 59 0 33 -4 63 -10 66 -6 4 -10 -7 -10 -24 0
-29 -3 -31 -34 -31 -32 0 -35 3 -39 33 -2 17 -4 1 -4 -38z"/>
<path d="M1045 1030 c3 -5 8 -10 11 -10 2 0 4 5 4 10 0 6 -5 10 -11 10 -5 0
-7 -4 -4 -10z"/>
<path d="M1550 975 c0 -69 17 -90 22 -28 2 27 8 39 21 41 14 3 17 -4 17 -37 0
-23 5 -41 11 -41 6 0 9 17 7 43 -3 39 -5 42 -30 42 -23 -1 -28 4 -28 22 0 13
-4 23 -10 23 -6 0 -10 -28 -10 -65z"/>
<path d="M4221 973 c1 -38 4 -56 6 -40 5 34 30 35 45 2 6 -14 15 -25 20 -25
11 0 10 7 -2 30 -7 13 -7 21 0 25 5 3 10 17 10 30 0 26 -25 45 -59 45 -19 0
-21 -5 -20 -67z m54 22 c0 -30 -39 -27 -43 3 -3 20 0 23 20 20 15 -2 23 -10
23 -23z"/>
<path d="M4330 975 c0 -37 4 -65 10 -65 6 0 10 11 10 24 0 37 16 40 40 6 31
-43 45 -37 16 7 l-26 37 27 28 c37 39 16 35 -24 -4 l-33 -32 0 32 c0 18 -4 32
-10 32 -6 0 -10 -28 -10 -65z"/>
<path d="M6258 1029 c-29 -16 -21 -44 18 -62 40 -20 36 -41 -7 -35 -36 6 -38
-9 -3 -18 31 -8 60 16 50 41 -3 9 -20 22 -36 28 -45 17 -40 41 8 34 34 -6 35
-5 18 8 -23 17 -25 18 -48 4z"/>
<path d="M6366 1028 c-9 -5 -16 -14 -16 -20 0 -9 3 -9 12 0 7 7 20 12 30 12
28 0 22 -33 -12 -65 -16 -16 -30 -32 -30 -37 0 -4 18 -8 40 -8 44 0 55 17 14
22 l-26 3 21 27 c12 14 21 35 21 46 0 23 -29 34 -54 20z"/>
<path d="M6490 1032 c-8 -3 -18 -10 -22 -16 -13 -19 -8 -74 8 -90 34 -35 64
-11 64 51 0 44 -19 66 -50 55z m38 -50 c4 -43 -13 -65 -39 -51 -13 6 -19 21
-19 43 0 39 7 48 35 44 15 -2 21 -12 23 -36z"/>
<path d="M6650 1032 c-8 -3 -18 -10 -22 -16 -13 -19 -8 -74 8 -90 34 -35 64
-11 64 51 0 44 -19 66 -50 55z m38 -50 c4 -43 -13 -65 -39 -51 -13 6 -19 21
-19 43 0 39 7 48 35 44 15 -2 21 -12 23 -36z"/>
<path d="M6756 1027 c-23 -17 -26 -82 -4 -103 21 -21 56 -10 64 21 14 58 -23
109 -60 82z m48 -23 c18 -47 -13 -101 -42 -72 -13 13 -16 70 -5 81 12 13 41 7
47 -9z"/>
<path d="M9251 1029 c-2 -25 29 -119 39 -119 4 0 11 17 15 38 11 65 21 69 35
13 6 -28 16 -51 20 -51 10 0 43 107 37 123 -2 7 -9 -12 -16 -41 -15 -59 -21
-59 -36 -1 -12 48 -27 51 -38 7 -15 -63 -19 -64 -37 -8 -10 30 -18 48 -19 39z"/>
<path d="M9580 1020 c0 -15 -7 -20 -25 -20 -32 0 -48 -30 -35 -65 8 -20 16
-25 40 -23 30 2 30 2 30 65 0 35 -2 63 -5 63 -3 0 -5 -9 -5 -20z m-2 -62 c-2
-25 -8 -33 -23 -33 -15 0 -21 8 -23 33 -3 29 -1 32 23 32 24 0 26 -3 23 -32z"/>
<path d="M9741 978 c-11 -34 -18 -64 -16 -67 3 -3 8 5 12 17 7 30 59 31 68 1
4 -11 9 -18 12 -16 7 7 -38 127 -47 127 -5 0 -18 -28 -29 -62z m39 23 c0 -5 3
-16 6 -25 4 -12 0 -16 -16 -16 -16 0 -20 4 -16 16 3 9 6 20 6 25 0 5 5 9 10 9
6 0 10 -4 10 -9z"/>
<path d="M10075 1024 c-20 -16 -20 -16 2 -10 21 7 22 3 26 -51 l3 -58 2 68 c1
37 -1 67 -5 67 -5 0 -17 -8 -28 -16z"/>
<path d="M10156 1024 c-20 -20 -21 -88 -1 -104 18 -15 45 -10 59 13 15 24 -5
52 -38 52 -14 -1 -26 5 -26 12 0 17 37 36 45 23 3 -5 11 -10 17 -10 7 0 6 6
-2 15 -16 19 -35 19 -54 -1z m51 -60 c3 -8 -2 -23 -11 -32 -15 -15 -17 -15
-32 0 -21 21 -11 48 16 48 11 0 23 -7 27 -16z"/>
<path d="M10350 1025 c-11 -13 -10 -14 3 -9 13 5 17 -4 20 -53 l3 -58 2 68 c2
67 -5 80 -28 52z"/>
<path d="M10477 1022 c-19 -21 -22 -64 -7 -93 25 -46 89 3 75 58 -13 54 -39
67 -68 35z m53 -32 c8 -58 -20 -91 -46 -55 -19 25 -18 60 2 80 14 14 19 14 30
3 7 -7 13 -20 14 -28z"/>
<path d="M10580 1025 c-11 -13 -10 -14 3 -9 13 5 17 -4 20 -53 l3 -58 2 68 c2
67 -5 80 -28 52z"/>
<path d="M10701 973 c1 -38 4 -56 6 -41 3 22 10 27 36 30 61 6 42 78 -20 78
-22 0 -23 -3 -22 -67z m54 43 c25 -18 13 -46 -20 -46 -20 0 -25 5 -25 23 0 38
14 46 45 23z"/>
<path d="M10812 973 l1 -68 6 54 6 55 19 -52 c10 -29 21 -52 25 -52 4 0 16 24
27 53 l19 52 6 -55 6 -55 1 68 c1 37 -2 67 -8 67 -5 0 -17 -22 -27 -50 -10
-27 -20 -50 -23 -50 -3 0 -14 23 -24 50 -10 28 -22 50 -27 50 -5 0 -8 -30 -7
-67z"/>
<path d="M11737 1022 c-33 -36 -13 -112 29 -112 35 0 54 20 54 59 0 61 -48 92
-83 53z m71 -49 c-4 -43 -29 -64 -55 -47 -32 20 -29 89 5 97 34 7 53 -12 50
-50z"/>
<path d="M11963 975 c0 -38 2 -53 4 -32 2 20 2 52 0 70 -2 17 -4 1 -4 -38z"/>
<path d="M4848 1013 c-8 -37 7 -98 25 -101 9 -2 17 1 17 7 0 6 -4 11 -10 11
-5 0 -10 14 -10 30 0 17 5 30 10 30 6 0 5 8 -2 20 -16 25 -24 25 -30 3z"/>
<path d="M7590 1010 c-11 -11 -20 -24 -20 -30 0 -13 37 -50 50 -50 13 0 50 37
50 50 0 13 -37 50 -50 50 -5 0 -19 -9 -30 -20z"/>
<path d="M7730 975 c0 -30 5 -55 10 -55 6 0 10 9 10 19 0 12 8 21 21 23 55 8
44 68 -12 68 -28 0 -29 -1 -29 -55z m55 20 c0 -11 -8 -21 -17 -23 -14 -3 -18
3 -18 23 0 20 4 26 18 23 9 -2 17 -12 17 -23z"/>
<path d="M13007 1012 c-22 -24 -21 -45 1 -65 24 -22 45 -21 65 1 22 24 21 45
-1 65 -24 22 -45 21 -65 -1z"/>
<path d="M13165 1021 c15 -6 22 -20 26 -57 l6 -49 1 52 c2 40 6 53 20 56 9 3
-3 5 -28 5 -31 0 -39 -2 -25 -7z"/>
<path d="M13563 1010 c-9 -13 -9 -21 -2 -26 13 -8 22 1 24 26 2 25 -7 25 -22
0z"/>
<path d="M12912 980 c0 -19 2 -27 5 -17 2 9 2 25 0 35 -3 9 -5 1 -5 -18z"/>
<path d="M13852 980 c0 -19 2 -27 5 -17 2 9 2 25 0 35 -3 9 -5 1 -5 -18z"/>
<path d="M1040 955 c0 -25 5 -45 10 -45 6 0 10 20 10 45 0 25 -4 45 -10 45 -5
0 -10 -20 -10 -45z"/>
<path d="M1090 953 c0 -53 18 -57 22 -5 2 25 8 37 18 37 10 0 16 -12 18 -37 4
-51 22 -49 22 2 0 29 4 40 15 40 11 0 15 -11 15 -40 0 -22 5 -40 10 -40 6 0
10 20 10 45 l0 44 -65 -1 -65 -1 0 -44z"/>
<path d="M1255 990 c-5 -7 2 -9 20 -4 21 5 26 3 23 -7 -2 -7 -15 -16 -29 -19
-22 -5 -25 -11 -20 -40 0 -5 17 -9 36 -8 36 1 36 2 33 42 -3 36 -6 41 -30 44
-14 2 -29 -2 -33 -8z m43 -52 c-3 -7 -11 -13 -18 -13 -7 0 -15 6 -17 13 -3 7
4 12 17 12 13 0 20 -5 18 -12z"/>
<path d="M1350 955 c0 -25 5 -45 10 -45 6 0 10 20 10 45 0 25 -4 45 -10 45 -5
0 -10 -20 -10 -45z"/>
<path d="M1393 990 c11 -7 17 -23 17 -45 0 -19 5 -35 11 -35 6 0 9 17 7 43 -3
36 -6 42 -28 45 -22 2 -23 1 -7 -8z"/>
<path d="M1462 978 c2 -15 11 -24 26 -26 23 -4 29 -16 12 -27 -6 -4 -17 -1
-25 5 -10 8 -15 9 -15 2 0 -17 19 -24 46 -18 33 9 30 35 -6 47 -35 13 -29 33
7 24 16 -4 22 -2 18 5 -3 5 -20 10 -36 10 -26 0 -30 -3 -27 -22z"/>
<path d="M1662 958 c3 -42 4 -43 41 -45 l37 -1 0 44 c0 24 -4 44 -10 44 -5 0
-10 -16 -10 -35 0 -28 -4 -35 -20 -35 -16 0 -20 7 -20 35 0 19 -5 35 -11 35
-6 0 -9 -17 -7 -42z"/>
<path d="M4503 958 c16 -52 31 -58 44 -16 10 33 12 31 27 -14 8 -27 23 -22 30
10 4 15 9 35 12 45 3 9 1 17 -4 17 -5 0 -13 -15 -17 -32 l-7 -33 -11 33 c-11
34 -25 42 -32 17 -16 -49 -17 -50 -27 -17 -5 17 -13 32 -18 32 -5 0 -3 -19 3
-42z"/>
<path d="M4645 990 c-4 -7 2 -9 18 -5 14 4 28 2 32 -4 4 -7 -6 -14 -25 -17
-24 -5 -30 -11 -28 -28 2 -16 10 -21 36 -21 31 -1 32 0 32 42 0 41 -1 43 -29
43 -17 0 -33 -5 -36 -10z m55 -49 c0 -12 -29 -23 -41 -15 -5 3 -7 10 -4 15 8
12 45 12 45 0z"/>
<path d="M4740 954 c0 -54 18 -59 22 -7 2 27 8 39 21 41 14 3 17 -4 17 -37 0
-23 5 -41 11 -41 6 0 9 17 7 43 -3 41 -4 42 -40 44 l-38 1 0 -44z"/>
<path d="M4912 978 c2 -15 11 -24 26 -26 12 -2 22 -7 22 -11 0 -16 -13 -20
-32 -10 -16 9 -19 8 -16 -3 3 -7 18 -13 34 -13 39 0 45 30 10 46 -34 16 -34
33 0 25 17 -5 23 -3 19 4 -3 5 -20 10 -36 10 -26 0 -30 -3 -27 -22z"/>
<path d="M5050 955 c0 -25 5 -45 10 -45 6 0 10 18 10 41 0 33 3 40 18 37 11
-2 19 -16 23 -43 l5 -40 5 40 c3 28 9 41 22 43 14 3 17 -4 17 -37 0 -23 5 -41
11 -41 6 0 9 17 7 43 l-3 42 -62 2 -63 3 0 -45z"/>
<path d="M5210 980 c-15 -29 -3 -59 26 -66 41 -11 65 25 48 70 -9 24 -61 21
-74 -4z m58 -19 c4 -28 -17 -45 -35 -29 -14 11 -17 40 -6 52 14 14 38 0 41
-23z"/>
<path d="M5310 953 c0 -23 5 -43 10 -43 6 0 10 16 10 35 0 23 6 38 15 42 21 7
27 0 35 -44 l8 -38 1 47 1 48 -40 -2 -40 -1 0 -44z"/>
<path d="M5424 986 c-18 -46 18 -88 58 -68 23 11 22 11 -6 9 -16 -1 -31 4 -33
11 -3 8 6 12 27 12 27 0 31 3 28 23 -2 17 -11 23 -36 25 -21 2 -34 -2 -38 -12z
m56 -11 c0 -8 -9 -15 -20 -15 -11 0 -20 7 -20 15 0 8 9 15 20 15 11 0 20 -7
20 -15z"/>
<path d="M5520 996 c0 -2 7 -23 15 -47 15 -40 14 -45 -2 -56 -16 -12 -15 -13
4 -13 15 0 25 13 42 56 24 64 24 64 12 64 -5 0 -12 -13 -16 -30 -4 -16 -10
-30 -15 -30 -5 0 -11 14 -15 30 -4 17 -11 30 -16 30 -5 0 -9 -2 -9 -4z"/>
<path d="M7831 955 c2 -33 3 -35 6 -10 2 17 11 35 20 42 13 10 13 12 -6 10
-18 -1 -21 -7 -20 -42z"/>
<path d="M7890 985 c-20 -24 3 -67 33 -63 18 2 22 9 22 38 0 28 -4 36 -21 38
-11 2 -27 -4 -34 -13z m45 -25 c0 -15 -6 -26 -16 -28 -19 -3 -31 21 -22 43 9
25 38 13 38 -15z"/>
<path d="M7980 985 c-10 -12 -10 -21 -2 -40 12 -25 45 -34 57 -15 4 7 -2 9
-18 5 -27 -7 -41 13 -30 41 4 11 13 14 30 9 16 -4 22 -2 18 5 -9 15 -41 12
-55 -5z"/>
<path d="M8064 975 c-4 -15 -1 -32 6 -40 14 -17 46 -20 55 -6 3 6 -7 9 -21 8
-15 -1 -29 4 -31 11 -3 8 6 12 26 12 33 0 39 8 19 28 -20 20 -47 14 -54 -13z
m51 5 c4 -6 -5 -10 -20 -10 -15 0 -24 4 -20 10 3 6 12 10 20 10 8 0 17 -4 20
-10z"/>
<path d="M8157 993 c-13 -12 -7 -23 18 -35 28 -13 23 -32 -8 -24 -14 3 -17 2
-10 -5 15 -15 47 -7 51 13 2 12 -5 19 -22 24 -33 8 -34 28 -1 22 13 -3 22 -1
19 3 -6 11 -38 12 -47 2z"/>
<path d="M8237 993 c-13 -12 -7 -23 18 -35 28 -13 23 -32 -8 -24 -14 3 -17 2
-10 -5 15 -15 47 -7 51 13 2 12 -5 19 -22 24 -33 8 -34 28 -1 22 13 -3 22 -1
19 3 -6 11 -38 12 -47 2z"/>
<path d="M8313 960 c0 -25 2 -35 4 -22 2 12 2 32 0 45 -2 12 -4 2 -4 -23z"/>
<path d="M8351 955 l2 -40 6 35 c9 50 41 55 41 6 0 -20 5 -36 10 -36 12 0 13
50 2 68 -5 6 -20 11 -35 10 -25 -2 -27 -6 -26 -43z"/>
<path d="M8447 993 c-4 -3 -7 -19 -7 -34 0 -29 20 -42 46 -32 12 4 15 2 12 -8
-3 -8 -17 -13 -33 -12 -20 2 -25 -1 -18 -8 6 -6 21 -9 34 -7 21 3 24 9 27 53
3 49 2 51 -26 53 -16 1 -32 -1 -35 -5z m47 -20 c8 -19 -17 -48 -33 -39 -12 8
-15 39 -4 49 12 12 31 7 37 -10z"/>
<path d="M9414 974 c-4 -15 -2 -34 3 -43 13 -20 52 -26 67 -11 8 9 5 10 -15 5
-17 -4 -30 -1 -38 9 -12 14 -9 16 23 16 33 0 37 3 34 23 -2 17 -11 23 -35 25
-28 3 -33 0 -39 -24z m61 6 c8 -13 -20 -24 -41 -16 -20 8 -9 26 16 26 10 0 22
-5 25 -10z"/>
<path d="M9851 938 c1 -35 4 -54 6 -42 3 16 10 20 28 16 19 -3 27 2 36 21 16
36 -3 67 -41 67 l-30 0 1 -62z m57 20 c-2 -25 -8 -33 -23 -33 -15 0 -21 8 -23
33 -3 29 -1 32 23 32 24 0 26 -3 23 -32z"/>
<path d="M9951 953 c1 -27 3 -39 6 -28 2 11 6 30 8 42 3 12 13 24 23 26 10 3
6 5 -10 6 -27 1 -28 -1 -27 -46z"/>
<path d="M11851 953 c1 -27 3 -39 6 -28 2 11 6 30 9 43 3 14 12 22 24 22 12 0
21 -8 24 -22 3 -13 7 -32 9 -43 3 -12 5 -8 6 12 2 50 -7 63 -45 63 l-34 0 1
-47z"/>
<path d="M12003 955 c0 -27 2 -38 4 -22 2 15 2 37 0 50 -2 12 -4 0 -4 -28z"/>
<path d="M12041 950 l2 -45 6 40 c5 31 11 41 28 43 19 3 22 -2 26 -40 l4 -43
1 48 2 48 -35 -3 c-35 -2 -35 -2 -34 -48z"/>
<path d="M12144 973 c-11 -43 31 -82 59 -54 7 7 4 8 -10 5 -11 -3 -25 1 -32
10 -12 14 -9 16 23 16 20 0 36 4 36 9 0 26 -15 41 -41 41 -23 0 -30 -6 -35
-27z m61 7 c8 -13 -20 -24 -41 -16 -20 8 -9 26 16 26 10 0 22 -5 25 -10z"/>
<path d="M13253 960 c0 -25 2 -35 4 -22 2 12 2 32 0 45 -2 12 -4 2 -4 -23z"/>
<path d="M13305 990 c-4 -7 2 -9 19 -4 15 3 26 2 26 -4 0 -5 -12 -13 -26 -16
-35 -9 -29 -41 9 -42 26 -1 28 1 25 35 -2 28 -8 37 -25 39 -11 2 -24 -2 -28
-8z m45 -40 c0 -12 -28 -25 -36 -17 -9 9 6 27 22 27 8 0 14 -5 14 -10z"/>
<path d="M13393 960 c0 -25 2 -35 4 -22 2 12 2 32 0 45 -2 12 -4 2 -4 -23z"/>
<path d="M13422 994 c11 -3 18 -19 21 -42 l4 -37 -1 40 c-1 32 -5 40 -21 42
-15 1 -15 0 -3 -3z"/>
<path d="M13487 993 c-13 -13 -7 -31 13 -36 11 -3 20 -11 20 -17 0 -8 -8 -10
-21 -7 -16 4 -19 3 -11 -5 14 -14 42 -3 42 16 0 8 -9 18 -20 21 -11 3 -20 11
-20 17 0 6 9 8 20 5 11 -3 20 -1 20 4 0 10 -33 12 -43 2z"/>
<path d="M13622 988 c-25 -25 -6 -68 30 -68 10 0 18 4 18 8 0 5 -10 8 -21 8
-12 -1 -24 5 -26 12 -3 8 6 12 26 12 17 0 31 4 31 8 0 12 -22 32 -35 32 -6 0
-16 -5 -23 -12z m43 -8 c4 -6 -5 -10 -20 -10 -15 0 -24 4 -20 10 3 6 12 10 20
10 8 0 17 -4 20 -10z"/>
<path d="M13701 955 c2 -33 3 -35 6 -10 2 17 11 35 20 42 13 10 13 12 -6 10
-18 -1 -21 -7 -20 -42z"/>
<path d="M480 850 c0 -73 3 -90 15 -90 11 0 15 11 15 40 l0 40 40 0 40 0 0
-40 c0 -33 3 -40 20 -40 19 0 20 7 20 90 0 83 -1 90 -20 90 -16 0 -20 -7 -20
-35 0 -34 -1 -35 -40 -35 -39 0 -40 1 -40 35 0 24 -5 35 -15 35 -12 0 -15 -17
-15 -90z"/>
<path d="M3174 927 c-3 -8 -4 -49 -2 -93 l3 -79 35 -2 c34 -1 34 -1 5 5 l-30
7 0 80 0 80 30 6 30 7 -33 1 c-19 1 -35 -5 -38 -12z"/>
<path d="M6575 920 c3 -5 8 -10 11 -10 2 0 4 5 4 10 0 6 -5 10 -11 10 -5 0 -7
-4 -4 -10z"/>
<path d="M9628 907 c-3 -19 -2 -25 4 -19 6 6 8 18 6 28 -3 14 -5 12 -10 -9z"/>
<path d="M10251 923 c-1 -6 -4 -20 -7 -30 -5 -17 -5 -17 6 0 6 10 9 23 6 30
-3 9 -5 9 -5 0z"/>
<path d="M3319 876 l23 -25 -58 -4 -59 -3 59 -2 59 -2 -23 -25 c-13 -14 -19
-25 -13 -25 12 0 53 43 53 56 0 12 -43 54 -55 54 -5 0 2 -11 14 -24z"/>
<path d="M12955 870 c10 -11 20 -20 23 -20 3 0 -3 9 -13 20 -10 11 -20 20 -23
20 -3 0 3 -9 13 -20z"/>
<path d="M13804 868 l-19 -23 23 19 c21 18 27 26 19 26 -2 0 -12 -10 -23 -22z"/>
<path d="M13207 823 c94 -2 252 -2 350 0 98 1 21 2 -172 2 -192 1 -273 -1
-178 -2z"/>
<path d="M919 765 c-7 -32 5 -98 19 -101 7 -1 8 0 2 3 -15 7 -13 73 3 73 8 0
9 3 1 8 -6 4 -13 14 -16 22 -3 11 -6 9 -9 -5z"/>
<path d="M1169 765 c-7 -32 5 -98 19 -101 7 -1 8 0 2 3 -15 7 -13 73 3 73 8 0
9 3 1 8 -6 4 -13 14 -16 22 -3 11 -6 9 -9 -5z"/>
<path d="M1244 758 c-19 -23 -19 -23 2 -5 30 25 79 22 98 -5 9 -12 16 -18 16
-12 0 20 -36 44 -67 44 -19 0 -37 -8 -49 -22z"/>
<path d="M1385 750 c-3 -5 3 -10 15 -10 12 0 18 5 15 10 -3 6 -10 10 -15 10
-5 0 -12 -4 -15 -10z"/>
<path d="M1635 750 c-3 -5 3 -10 15 -10 12 0 18 5 15 10 -3 6 -10 10 -15 10
-5 0 -12 -4 -15 -10z"/>
<path d="M977 743 c-11 -11 -8 -58 5 -71 14 -14 44 -16 52 -4 2 4 -7 8 -21 7
-14 0 -28 6 -30 13 -3 8 6 12 27 12 27 0 31 3 28 22 -2 12 -9 23 -16 24 -7 1
-8 0 -2 -3 20 -10 10 -33 -15 -33 -26 0 -35 24 -12 33 6 3 7 6 1 6 -6 1 -14
-2 -17 -6z"/>
<path d="M1074 738 c-8 -12 22 -38 44 -38 7 0 12 -6 9 -12 -2 -7 -17 -12 -32
-11 -20 2 -25 -1 -17 -9 15 -15 62 -1 62 18 0 8 -13 20 -30 25 -32 12 -38 24
-17 32 9 4 9 6 0 6 -6 1 -15 -4 -19 -11z"/>
<path d="M1457 743 c-4 -3 -7 -15 -7 -25 0 -14 8 -18 36 -18 31 0 35 3 32 22
-2 12 -9 23 -16 24 -7 1 -8 0 -2 -3 20 -10 10 -33 -15 -33 -26 0 -35 24 -12
33 6 3 7 6 1 6 -6 1 -14 -2 -17 -6z"/>
<path d="M1555 740 c-4 -6 -2 -17 4 -24 14 -17 51 -28 51 -15 0 5 -9 9 -19 9
-25 0 -38 20 -20 31 9 6 10 9 2 9 -6 0 -15 -5 -18 -10z"/>
<path d="M1595 740 c3 -5 8 -10 11 -10 2 0 4 5 4 10 0 6 -5 10 -11 10 -5 0 -7
-4 -4 -10z"/>
<path d="M1757 743 c-11 -11 -8 -58 5 -71 14 -14 44 -16 52 -4 2 4 -8 8 -22 7
-23 0 -27 5 -30 34 -3 32 -2 33 27 29 16 -2 28 -1 25 4 -6 10 -48 11 -57 1z"/>
<path d="M1857 743 c-4 -3 -7 -19 -7 -33 0 -54 57 -67 74 -18 7 19 6 31 -4 42
-13 16 -51 22 -63 9z m58 -14 c4 -5 4 -21 1 -35 -5 -19 -12 -25 -29 -22 -17 2
-23 11 -25 36 -3 28 0 32 22 32 14 0 28 -5 31 -11z"/>
<path d="M1997 743 c6 -4 13 -26 16 -48 4 -40 4 -40 3 4 -1 30 -6 46 -16 48
-10 3 -11 2 -3 -4z"/>
<path d="M2055 740 c3 -5 8 -10 11 -10 2 0 4 5 4 10 0 6 -5 10 -11 10 -5 0 -7
-4 -4 -10z"/>
<path d="M1265 729 c-4 -6 -4 -13 -1 -16 3 -4 6 -1 6 6 0 9 9 12 25 9 14 -3
25 -1 25 3 0 13 -48 11 -55 -2z"/>
<path d="M1222 705 c0 -16 2 -22 5 -12 2 9 2 23 0 30 -3 6 -5 -1 -5 -18z"/>
<path d="M1260 691 c0 -6 4 -13 10 -16 6 -3 7 1 4 9 -7 18 -14 21 -14 7z"/>
<path d="M1304 678 c-4 -7 -4 -10 1 -6 4 4 15 2 24 -5 14 -11 14 -10 2 6 -16
20 -18 21 -27 5z"/>
<path d="M1459 678 c14 -19 46 -24 55 -9 4 5 -3 7 -14 4 -11 -3 -28 1 -38 8
-15 13 -16 12 -3 -3z"/>
<path d="M1400 670 c0 -5 5 -10 11 -10 5 0 7 5 4 10 -3 6 -8 10 -11 10 -2 0
-4 -4 -4 -10z"/>
<path d="M1557 668 c2 -5 13 -8 23 -8 10 0 21 3 23 8 3 4 -8 7 -23 7 -15 0
-26 -3 -23 -7z"/>
<path d="M1650 670 c0 -5 5 -10 11 -10 5 0 7 5 4 10 -3 6 -8 10 -11 10 -2 0
-4 -4 -4 -10z"/>
<path d="M1700 669 c0 -5 5 -7 10 -4 6 3 10 8 10 11 0 2 -4 4 -10 4 -5 0 -10
-5 -10 -11z"/>
<path d="M1244 653 c14 -17 29 -23 55 -21 l36 1 -35 4 c-19 3 -44 12 -55 21
-20 17 -20 17 -1 -5z"/>
<path d="M13207 403 c94 -2 252 -2 350 0 98 1 21 2 -172 2 -192 1 -273 -1
-178 -2z"/>
<path d="M12954 358 l-19 -23 23 19 c21 18 27 26 19 26 -2 0 -12 -10 -23 -22z"/>
<path d="M13805 360 c10 -11 20 -20 23 -20 3 0 -3 9 -13 20 -10 11 -20 20 -23
20 -3 0 3 -9 13 -20z"/>
<path d="M4234 258 c-9 -29 -19 -59 -22 -65 -2 -7 1 -13 7 -13 6 0 11 7 11 15
0 22 56 20 69 -2 5 -10 12 -16 15 -13 8 9 -38 130 -51 130 -6 0 -19 -24 -29
-52z m43 -24 c-3 -3 -12 -4 -20 -2 -11 2 -12 9 -5 28 l10 25 11 -23 c5 -12 8
-25 4 -28z"/>
<path d="M4347 304 c-4 -4 -7 -34 -7 -66 l0 -58 33 0 c20 0 41 8 50 18 20 22
22 75 4 91 -18 14 -70 25 -80 15z m67 -30 c19 -18 20 -28 6 -55 -6 -11 -21
-19 -35 -19 -23 0 -25 4 -25 45 0 38 3 45 19 45 11 0 27 -7 35 -16z"/>
<path d="M4481 255 c-24 -63 -25 -75 -11 -75 6 0 10 7 10 15 0 10 10 15 29 15
16 0 31 -6 35 -15 3 -8 10 -15 15 -15 14 0 -31 122 -46 127 -6 2 -20 -21 -32
-52z m45 -22 c-2 -3 -11 -3 -19 -1 -11 2 -12 9 -5 28 l10 25 9 -24 c5 -13 7
-26 5 -28z"/>
<path d="M4602 298 c-23 -23 -13 -47 24 -63 19 -8 33 -19 29 -25 -9 -14 -38
-13 -54 3 -10 10 -12 8 -9 -8 5 -30 63 -33 78 -5 14 26 1 45 -35 54 -14 4 -25
13 -25 21 0 18 31 20 48 3 9 -9 12 -8 12 4 0 26 -47 37 -68 16z"/>
<path d="M4700 246 c0 -66 0 -66 28 -66 40 0 72 26 72 59 0 39 -20 61 -63 68
l-37 6 0 -67z m69 30 c7 -8 11 -27 9 -43 -2 -22 -9 -29 -30 -31 -27 -3 -28 -2
-28 42 0 38 3 46 19 46 10 0 24 -6 30 -14z"/>
<path d="M4855 300 c-16 -26 -43 -120 -34 -120 5 0 12 7 15 15 4 9 19 15 35
15 19 0 29 -5 29 -15 0 -8 5 -15 10 -15 14 0 13 12 -11 75 -20 53 -31 65 -44
45z m28 -50 c4 -15 0 -20 -15 -20 -14 0 -18 5 -14 16 3 9 6 20 6 25 0 17 17 1
23 -21z"/>
<path d="M4955 294 c-22 -22 -15 -36 29 -57 20 -10 34 -22 31 -27 -9 -14 -53
-12 -58 3 -2 6 -8 9 -12 5 -11 -11 14 -38 35 -38 33 0 50 12 50 36 0 17 -7 25
-25 30 -13 3 -29 12 -36 20 -16 19 17 31 42 15 21 -13 26 -2 7 17 -17 17 -44
15 -63 -4z"/>
<path d="M5060 246 c0 -66 0 -66 28 -66 40 0 72 26 72 59 0 39 -20 61 -63 68
l-37 6 0 -67z m69 30 c7 -8 11 -27 9 -43 -2 -22 -9 -29 -30 -31 -27 -3 -28 -2
-28 42 0 38 3 46 19 46 10 0 24 -6 30 -14z"/>
<path d="M6258 299 c-29 -16 -21 -44 18 -62 40 -20 36 -41 -7 -35 -36 6 -38
-9 -3 -18 31 -8 60 16 50 41 -3 9 -20 22 -36 28 -45 17 -40 41 8 34 34 -6 35
-5 18 8 -23 17 -25 18 -48 4z"/>
<path d="M6440 290 c-25 -25 -26 -61 -2 -90 36 -44 84 2 68 65 -10 38 -41 50
-66 25z m54 -16 c15 -40 -9 -89 -38 -78 -20 8 -29 50 -16 74 13 24 45 26 54 4z"/>
<path d="M6600 290 c-25 -25 -26 -61 -2 -90 36 -44 84 2 68 65 -10 38 -41 50
-66 25z m54 -16 c15 -40 -9 -89 -38 -78 -20 8 -29 50 -16 74 13 24 45 26 54 4z"/>
<path d="M6722 294 c-41 -29 -19 -121 27 -112 22 5 43 52 35 83 -9 36 -35 48
-62 29z m46 -45 c4 -45 -18 -68 -42 -44 -29 30 -17 88 18 83 16 -2 22 -11 24
-39z"/>
<path d="M9251 299 c-2 -25 29 -119 39 -119 4 0 11 17 15 38 11 65 21 69 35
13 6 -28 16 -51 20 -51 10 0 43 107 37 123 -2 7 -9 -12 -16 -41 -15 -59 -21
-59 -36 -1 -12 48 -27 51 -38 7 -15 -63 -19 -64 -37 -8 -10 30 -18 48 -19 39z"/>
<path d="M9580 290 c0 -15 -7 -20 -25 -20 -32 0 -48 -30 -35 -65 8 -20 16 -25
40 -23 30 2 30 2 30 65 0 35 -2 63 -5 63 -3 0 -5 -9 -5 -20z m-2 -62 c-2 -25
-8 -33 -23 -33 -15 0 -21 8 -23 33 -3 29 -1 32 23 32 24 0 26 -3 23 -32z"/>
<path d="M9741 248 c-11 -34 -18 -64 -16 -67 3 -3 8 5 12 17 7 30 59 31 68 1
4 -11 9 -18 12 -16 7 7 -38 127 -47 127 -5 0 -18 -28 -29 -62z m39 23 c0 -5 3
-16 6 -25 4 -12 0 -16 -16 -16 -16 0 -20 4 -16 16 3 9 6 20 6 25 0 5 5 9 10 9
6 0 10 -4 10 -9z"/>
<path d="M10075 294 c-20 -16 -20 -16 2 -10 21 7 22 3 26 -51 l3 -58 2 68 c1
37 -1 67 -5 67 -5 0 -17 -8 -28 -16z"/>
<path d="M10156 294 c-20 -20 -21 -88 -1 -104 18 -15 45 -10 59 13 15 24 -5
52 -38 52 -14 -1 -26 5 -26 12 0 17 37 36 45 23 3 -5 11 -10 17 -10 7 0 6 6
-2 15 -16 19 -35 19 -54 -1z m51 -60 c3 -8 -2 -23 -11 -32 -15 -15 -17 -15
-32 0 -21 21 -11 48 16 48 11 0 23 -7 27 -16z"/>
<path d="M10350 295 c-11 -13 -10 -14 3 -9 13 5 17 -4 20 -53 l3 -58 2 68 c2
67 -5 80 -28 52z"/>
<path d="M10426 294 c-23 -23 -19 -30 4 -9 19 17 22 17 37 3 14 -15 13 -20
-22 -62 l-37 -46 43 2 c38 1 39 2 11 5 l-33 4 31 35 c33 38 37 53 18 72 -16
16 -33 15 -52 -4z"/>
<path d="M10582 298 c-19 -19 -14 -33 6 -16 9 9 23 13 30 11 21 -8 13 -38 -18
-68 -16 -16 -30 -32 -30 -37 0 -4 19 -7 43 -6 37 1 38 2 9 5 l-33 4 26 30 c28
34 33 74 9 83 -22 8 -28 8 -42 -6z"/>
<path d="M10692 298 c-7 -7 -12 -16 -12 -21 0 -5 7 -2 15 7 19 18 45 11 45
-13 0 -10 -13 -30 -30 -46 -16 -16 -30 -32 -30 -37 0 -4 19 -7 43 -6 37 1 38
2 9 5 l-33 4 25 34 c29 38 33 70 10 79 -22 8 -28 8 -42 -6z"/>
<path d="M10841 243 c1 -38 4 -56 6 -40 3 20 10 27 27 27 27 0 46 18 46 42 0
20 -28 38 -59 38 -19 0 -21 -5 -20 -67z m53 44 c23 -17 11 -47 -20 -47 -18 0
-24 5 -24 23 0 38 14 46 44 24z"/>
<path d="M10952 243 l1 -68 6 54 6 55 19 -52 c10 -29 21 -52 25 -52 4 0 16 24
27 53 l19 52 6 -55 6 -55 1 68 c1 37 -2 67 -8 67 -5 0 -17 -22 -27 -50 -10
-27 -20 -50 -23 -50 -3 0 -14 23 -24 50 -10 28 -22 50 -27 50 -5 0 -8 -30 -7
-67z"/>
<path d="M11737 292 c-33 -36 -13 -112 29 -112 35 0 54 20 54 59 0 61 -48 92
-83 53z m71 -49 c-4 -43 -29 -64 -55 -47 -32 20 -29 89 5 97 34 7 53 -12 50
-50z"/>
<path d="M11963 245 c0 -38 2 -53 4 -32 2 20 2 52 0 70 -2 17 -4 1 -4 -38z"/>
<path d="M6355 290 c-3 -5 0 -7 9 -4 12 5 16 -6 19 -53 l3 -58 2 63 c2 48 -1
62 -12 62 -8 0 -18 -4 -21 -10z"/>
<path d="M7590 280 c-11 -11 -20 -24 -20 -30 0 -13 37 -50 50 -50 13 0 50 37
50 50 0 13 -37 50 -50 50 -5 0 -19 -9 -30 -20z"/>
<path d="M7730 245 c0 -30 5 -55 10 -55 6 0 10 9 10 19 0 12 8 21 21 23 55 8
44 68 -12 68 -28 0 -29 -1 -29 -55z m55 20 c0 -11 -8 -21 -17 -23 -14 -3 -18
3 -18 23 0 20 4 26 18 23 9 -2 17 -12 17 -23z"/>
<path d="M13007 282 c-22 -24 -21 -45 1 -65 24 -22 45 -21 65 1 22 24 21 45
-1 65 -24 22 -45 21 -65 -1z"/>
<path d="M13165 291 c15 -6 22 -20 26 -57 l6 -49 1 52 c2 40 6 53 20 56 9 3
-3 5 -28 5 -31 0 -39 -2 -25 -7z"/>
<path d="M13563 280 c-9 -13 -9 -21 -2 -26 13 -8 22 1 24 26 2 25 -7 25 -22 0z"/>
<path d="M10520 280 c0 -5 5 -10 10 -10 6 0 10 5 10 10 0 6 -4 10 -10 10 -5 0
-10 -4 -10 -10z"/>
<path d="M12912 250 c0 -19 2 -27 5 -17 2 9 2 25 0 35 -3 9 -5 1 -5 -18z"/>
<path d="M13852 250 c0 -19 2 -27 5 -17 2 9 2 25 0 35 -3 9 -5 1 -5 -18z"/>
<path d="M7831 225 c2 -33 3 -35 6 -10 2 17 11 35 20 42 13 10 13 12 -6 10
-18 -1 -21 -7 -20 -42z"/>
<path d="M7890 255 c-20 -24 3 -67 33 -63 18 2 22 9 22 38 0 28 -4 36 -21 38
-11 2 -27 -4 -34 -13z m45 -25 c0 -15 -6 -26 -16 -28 -19 -3 -31 21 -22 43 9
25 38 13 38 -15z"/>
<path d="M7980 255 c-10 -12 -10 -21 -2 -40 12 -25 45 -34 57 -15 4 7 -2 9
-18 5 -27 -7 -41 13 -30 41 4 11 13 14 30 9 16 -4 22 -2 18 5 -9 15 -41 12
-55 -5z"/>
<path d="M8064 245 c-4 -15 -1 -32 6 -40 14 -17 46 -20 55 -6 3 6 -7 9 -21 8
-15 -1 -29 4 -31 11 -3 8 6 12 26 12 33 0 39 8 19 28 -20 20 -47 14 -54 -13z
m51 5 c4 -6 -5 -10 -20 -10 -15 0 -24 4 -20 10 3 6 12 10 20 10 8 0 17 -4 20
-10z"/>
<path d="M8157 263 c-13 -12 -7 -23 18 -35 28 -13 23 -32 -8 -24 -14 3 -17 2
-10 -5 15 -15 47 -7 51 13 2 12 -5 19 -22 24 -33 8 -34 28 -1 22 13 -3 22 -1
19 3 -6 11 -38 12 -47 2z"/>
<path d="M8237 263 c-13 -12 -7 -23 18 -35 28 -13 23 -32 -8 -24 -14 3 -17 2
-10 -5 15 -15 47 -7 51 13 2 12 -5 19 -22 24 -33 8 -34 28 -1 22 13 -3 22 -1
19 3 -6 11 -38 12 -47 2z"/>
<path d="M8313 230 c0 -25 2 -35 4 -22 2 12 2 32 0 45 -2 12 -4 2 -4 -23z"/>
<path d="M8351 225 l2 -40 6 35 c9 50 41 55 41 6 0 -20 5 -36 10 -36 12 0 13
50 2 68 -5 6 -20 11 -35 10 -25 -2 -27 -6 -26 -43z"/>
<path d="M8447 263 c-4 -3 -7 -19 -7 -34 0 -29 20 -42 46 -32 12 4 15 2 12 -8
-3 -8 -17 -13 -33 -12 -20 2 -25 -1 -18 -8 6 -6 21 -9 34 -7 21 3 24 9 27 53
3 49 2 51 -26 53 -16 1 -32 -1 -35 -5z m47 -20 c8 -19 -17 -48 -33 -39 -12 8
-15 39 -4 49 12 12 31 7 37 -10z"/>
<path d="M9414 244 c-4 -15 -2 -34 3 -43 13 -20 52 -26 67 -11 8 9 5 10 -15 5
-17 -4 -30 -1 -38 9 -12 14 -9 16 23 16 33 0 37 3 34 23 -2 17 -11 23 -35 25
-28 3 -33 0 -39 -24z m61 6 c8 -13 -20 -24 -41 -16 -20 8 -9 26 16 26 10 0 22
-5 25 -10z"/>
<path d="M9851 208 c1 -35 4 -54 6 -42 3 16 10 20 28 16 19 -3 27 2 36 21 16
36 -3 67 -41 67 l-30 0 1 -62z m57 20 c-2 -25 -8 -33 -23 -33 -15 0 -21 8 -23
33 -3 29 -1 32 23 32 24 0 26 -3 23 -32z"/>
<path d="M9951 223 c1 -27 3 -39 6 -28 2 11 6 30 8 42 3 12 13 24 23 26 10 3
6 5 -10 6 -27 1 -28 -1 -27 -46z"/>
<path d="M11851 223 c1 -27 3 -39 6 -28 2 11 6 30 9 43 3 14 12 22 24 22 12 0
21 -8 24 -22 3 -13 7 -32 9 -43 3 -12 5 -8 6 12 2 50 -7 63 -45 63 l-34 0 1
-47z"/>
<path d="M12003 225 c0 -27 2 -38 4 -22 2 15 2 37 0 50 -2 12 -4 0 -4 -28z"/>
<path d="M12041 220 l2 -45 6 40 c5 31 11 41 28 43 19 3 22 -2 26 -40 l4 -43
1 48 2 48 -35 -3 c-35 -2 -35 -2 -34 -48z"/>
<path d="M12144 243 c-11 -43 31 -82 59 -54 7 7 4 8 -10 5 -11 -3 -25 1 -32
10 -12 14 -9 16 23 16 20 0 36 4 36 9 0 26 -15 41 -41 41 -23 0 -30 -6 -35
-27z m61 7 c8 -13 -20 -24 -41 -16 -20 8 -9 26 16 26 10 0 22 -5 25 -10z"/>
<path d="M13253 230 c0 -25 2 -35 4 -22 2 12 2 32 0 45 -2 12 -4 2 -4 -23z"/>
<path d="M13305 260 c-4 -7 2 -9 19 -4 15 3 26 2 26 -4 0 -5 -12 -13 -26 -16
-35 -9 -29 -41 9 -42 26 -1 28 1 25 35 -2 28 -8 37 -25 39 -11 2 -24 -2 -28
-8z m45 -40 c0 -12 -28 -25 -36 -17 -9 9 6 27 22 27 8 0 14 -5 14 -10z"/>
<path d="M13393 230 c0 -25 2 -35 4 -22 2 12 2 32 0 45 -2 12 -4 2 -4 -23z"/>
<path d="M13422 264 c11 -3 18 -19 21 -42 l4 -37 -1 40 c-1 32 -5 40 -21 42
-15 1 -15 0 -3 -3z"/>
<path d="M13487 263 c-13 -13 -7 -31 13 -36 11 -3 20 -11 20 -17 0 -8 -8 -10
-21 -7 -16 4 -19 3 -11 -5 14 -14 42 -3 42 16 0 8 -9 18 -20 21 -11 3 -20 11
-20 17 0 6 9 8 20 5 11 -3 20 -1 20 4 0 10 -33 12 -43 2z"/>
<path d="M13622 258 c-25 -25 -6 -68 30 -68 10 0 18 4 18 8 0 5 -10 8 -21 8
-12 -1 -24 5 -26 12 -3 8 6 12 26 12 17 0 31 4 31 8 0 12 -22 32 -35 32 -6 0
-16 -5 -23 -12z m43 -8 c4 -6 -5 -10 -20 -10 -15 0 -24 4 -20 10 3 6 12 10 20
10 8 0 17 -4 20 -10z"/>
<path d="M13701 225 c2 -33 3 -35 6 -10 2 17 11 35 20 42 13 10 13 12 -6 10
-18 -1 -21 -7 -20 -42z"/>
<path d="M10520 210 c0 -5 5 -10 10 -10 6 0 10 5 10 10 0 6 -4 10 -10 10 -5 0
-10 -4 -10 -10z"/>
<path d="M9628 177 c-3 -19 -2 -25 4 -19 6 6 8 18 6 28 -3 14 -5 12 -10 -9z"/>
<path d="M10251 193 c-1 -6 -4 -20 -7 -30 -5 -17 -5 -17 6 0 6 10 9 23 6 30
-3 9 -5 9 -5 0z"/>
<path d="M12955 140 c10 -11 20 -20 23 -20 3 0 -3 9 -13 20 -10 11 -20 20 -23
20 -3 0 3 -9 13 -20z"/>
<path d="M13804 138 l-19 -23 23 19 c21 18 27 26 19 26 -2 0 -12 -10 -23 -22z"/>
<path d="M13207 93 c94 -2 252 -2 350 0 98 1 21 2 -172 2 -192 1 -273 -1 -178
-2z"/>
<path d="M3663 3 c2017 -2 5317 -2 7335 0 2017 1 366 2 -3668 2 -4034 0 -5685
-1 -3667 -2z"/>
</g>
</svg>
